<svg xmlns="http://www.w3.org/2000/svg" xmlns:xlink="http://www.w3.org/1999/xlink" width="1080" zoomAndPan="magnify" viewBox="0 0 810 1012.49997" height="1350" preserveAspectRatio="xMidYMid meet" version="1.0"><defs><clipPath id="8a763a190a"><path d="M 208 147.671875 L 625 147.671875 L 625 864.316406 L 208 864.316406 Z M 208 147.671875 " clip-rule="nonzero"/></clipPath><clipPath id="91027cda1f"><path d="M 81.160156 225 L 346 225 L 346 434 L 81.160156 434 Z M 81.160156 225 " clip-rule="nonzero"/></clipPath><clipPath id="8c4f350fb3"><path d="M 562 453 L 728.839844 453 L 728.839844 606 L 562 606 Z M 562 453 " clip-rule="nonzero"/></clipPath></defs><path fill="#ffffff" d="M 622.640625 778.085938 L 621.84375 464.191406 L 621.84375 233.800781 L 621.257812 233.800781 L 621.175781 200.203125 L 621.175781 193.324219 C 621.171875 191.898438 621.097656 190.476562 620.957031 189.058594 C 620.8125 187.640625 620.597656 186.230469 620.316406 184.832031 C 620.035156 183.433594 619.6875 182.054688 619.269531 180.6875 C 618.851562 179.324219 618.367188 177.984375 617.816406 176.667969 C 617.269531 175.351562 616.65625 174.066406 615.980469 172.808594 C 615.304688 171.554688 614.570312 170.335938 613.773438 169.148438 C 612.980469 167.964844 612.128906 166.824219 611.21875 165.722656 C 610.3125 164.625 609.351562 163.570312 608.34375 162.566406 C 607.332031 161.558594 606.273438 160.605469 605.167969 159.703125 C 604.0625 158.800781 602.917969 157.957031 601.730469 157.164062 C 600.539062 156.375 599.316406 155.648438 598.058594 154.976562 C 596.796875 154.308594 595.507812 153.703125 594.1875 153.160156 C 592.871094 152.617188 591.527344 152.140625 590.160156 151.730469 C 588.796875 151.320312 587.414062 150.976562 586.011719 150.703125 C 584.613281 150.429688 583.203125 150.222656 581.785156 150.085938 C 580.363281 149.949219 578.941406 149.886719 577.515625 149.886719 L 254.335938 150.707031 C 252.910156 150.710938 251.484375 150.785156 250.066406 150.929688 C 248.648438 151.074219 247.238281 151.285156 245.839844 151.566406 C 244.441406 151.847656 243.0625 152.199219 241.699219 152.617188 C 240.335938 153.035156 238.992188 153.515625 237.675781 154.066406 C 236.363281 154.617188 235.074219 155.226562 233.820312 155.902344 C 232.5625 156.578125 231.34375 157.3125 230.160156 158.109375 C 228.976562 158.90625 227.832031 159.757812 226.734375 160.664062 C 225.632812 161.570312 224.578125 162.53125 223.574219 163.542969 C 222.566406 164.554688 221.613281 165.613281 220.710938 166.714844 C 219.808594 167.820312 218.964844 168.96875 218.175781 170.15625 C 217.386719 171.34375 216.65625 172.566406 215.988281 173.828125 C 215.316406 175.085938 214.710938 176.375 214.167969 177.695312 C 213.628906 179.015625 213.152344 180.355469 212.738281 181.722656 C 212.328125 183.089844 211.988281 184.472656 211.710938 185.871094 C 211.4375 187.269531 211.230469 188.679688 211.097656 190.101562 C 210.960938 191.519531 210.894531 192.941406 210.898438 194.367188 L 210.898438 201.246094 L 211.566406 464.714844 L 211.566406 818.566406 C 211.566406 819.992188 211.636719 821.414062 211.777344 822.835938 C 211.914062 824.253906 212.125 825.664062 212.402344 827.0625 C 212.679688 828.460938 213.027344 829.84375 213.441406 831.207031 C 213.855469 832.574219 214.335938 833.914062 214.882812 835.230469 C 215.425781 836.550781 216.035156 837.835938 216.707031 839.09375 C 217.378906 840.351562 218.113281 841.574219 218.90625 842.761719 C 219.699219 843.945312 220.546875 845.089844 221.453125 846.191406 C 222.355469 847.296875 223.3125 848.351562 224.320312 849.359375 C 225.328125 850.367188 226.386719 851.324219 227.488281 852.230469 C 228.589844 853.132812 229.734375 853.984375 230.921875 854.777344 C 232.105469 855.566406 233.328125 856.300781 234.585938 856.972656 C 235.84375 857.644531 237.132812 858.253906 238.449219 858.800781 C 239.765625 859.34375 241.109375 859.824219 242.472656 860.238281 C 243.839844 860.652344 245.21875 861 246.617188 861.277344 C 248.019531 861.554688 249.425781 861.765625 250.847656 861.90625 C 252.265625 862.046875 253.6875 862.113281 255.113281 862.113281 L 578.296875 862.113281 C 579.722656 862.113281 581.144531 862.046875 582.5625 861.90625 C 583.984375 861.765625 585.394531 861.554688 586.792969 861.277344 C 588.191406 861 589.574219 860.652344 590.9375 860.238281 C 592.300781 859.824219 593.644531 859.347656 594.960938 858.800781 C 596.277344 858.253906 597.566406 857.644531 598.824219 856.972656 C 600.082031 856.300781 601.304688 855.566406 602.488281 854.777344 C 603.675781 853.984375 604.820312 853.132812 605.921875 852.230469 C 607.027344 851.324219 608.082031 850.367188 609.089844 849.359375 C 610.097656 848.351562 611.054688 847.296875 611.960938 846.191406 C 612.863281 845.089844 613.714844 843.945312 614.503906 842.761719 C 615.296875 841.574219 616.03125 840.351562 616.703125 839.09375 C 617.375 837.835938 617.984375 836.550781 618.53125 835.230469 C 619.074219 833.914062 619.554688 832.574219 619.96875 831.207031 C 620.382812 829.84375 620.730469 828.460938 621.007812 827.0625 C 621.285156 825.664062 621.496094 824.253906 621.636719 822.835938 C 621.773438 821.414062 621.84375 819.992188 621.84375 818.566406 L 621.84375 778.085938 Z M 622.640625 778.085938 " fill-opacity="1" fill-rule="nonzero"/><path fill="#18b7c9" d="M 211.5625 818.5625 L 211.5625 811.6875 L 621.84375 811.6875 L 621.84375 818.5625 C 621.84375 819.988281 621.773438 821.410156 621.636719 822.832031 C 621.496094 824.25 621.285156 825.660156 621.007812 827.058594 C 620.730469 828.457031 620.382812 829.839844 619.96875 831.203125 C 619.554688 832.570312 619.074219 833.910156 618.53125 835.226562 C 617.984375 836.546875 617.375 837.832031 616.703125 839.089844 C 616.03125 840.347656 615.296875 841.570312 614.503906 842.757812 C 613.714844 843.941406 612.863281 845.085938 611.960938 846.1875 C 611.054688 847.292969 610.097656 848.347656 609.089844 849.355469 C 608.082031 850.363281 607.027344 851.320312 605.921875 852.226562 C 604.820312 853.128906 603.675781 853.980469 602.488281 854.773438 C 601.304688 855.5625 600.082031 856.296875 598.824219 856.96875 C 597.566406 857.640625 596.277344 858.25 594.960938 858.796875 C 593.644531 859.339844 592.300781 859.820312 590.9375 860.234375 C 589.574219 860.648438 588.191406 860.996094 586.792969 861.273438 C 585.394531 861.550781 583.984375 861.761719 582.5625 861.902344 C 581.144531 862.042969 579.722656 862.109375 578.296875 862.109375 L 255.113281 862.109375 C 253.6875 862.109375 252.265625 862.042969 250.847656 861.902344 C 249.425781 861.761719 248.015625 861.554688 246.617188 861.273438 C 245.21875 860.996094 243.835938 860.652344 242.472656 860.238281 C 241.109375 859.824219 239.765625 859.34375 238.449219 858.796875 C 237.128906 858.25 235.84375 857.640625 234.585938 856.96875 C 233.328125 856.296875 232.105469 855.566406 230.917969 854.773438 C 229.734375 853.980469 228.589844 853.132812 227.484375 852.226562 C 226.382812 851.324219 225.328125 850.367188 224.320312 849.355469 C 223.308594 848.347656 222.351562 847.292969 221.449219 846.191406 C 220.542969 845.089844 219.695312 843.945312 218.902344 842.757812 C 218.109375 841.570312 217.378906 840.351562 216.703125 839.09375 C 216.03125 837.835938 215.421875 836.546875 214.878906 835.226562 C 214.332031 833.910156 213.851562 832.570312 213.4375 831.203125 C 213.023438 829.839844 212.675781 828.457031 212.398438 827.058594 C 212.121094 825.660156 211.910156 824.25 211.773438 822.832031 C 211.632812 821.410156 211.5625 819.988281 211.5625 818.5625 Z M 211.5625 818.5625 " fill-opacity="1" fill-rule="nonzero"/><path fill="#18b7c9" d="M 621.84375 193.855469 L 621.84375 200.730469 L 211.5625 200.730469 L 211.5625 193.855469 C 211.5625 192.429688 211.632812 191.003906 211.769531 189.585938 C 211.910156 188.167969 212.121094 186.757812 212.398438 185.359375 C 212.675781 183.957031 213.023438 182.578125 213.4375 181.210938 C 213.847656 179.847656 214.328125 178.503906 214.875 177.1875 C 215.421875 175.867188 216.03125 174.582031 216.703125 173.324219 C 217.375 172.0625 218.105469 170.84375 218.898438 169.65625 C 219.691406 168.46875 220.539062 167.324219 221.445312 166.222656 C 222.351562 165.121094 223.308594 164.0625 224.316406 163.054688 C 225.324219 162.046875 226.378906 161.089844 227.484375 160.183594 C 228.585938 159.28125 229.730469 158.429688 230.917969 157.636719 C 232.101562 156.84375 233.324219 156.113281 234.582031 155.441406 C 235.839844 154.769531 237.128906 154.160156 238.445312 153.613281 C 239.765625 153.066406 241.105469 152.585938 242.472656 152.171875 C 243.835938 151.757812 245.21875 151.414062 246.617188 151.136719 C 248.015625 150.855469 249.425781 150.648438 250.847656 150.507812 C 252.265625 150.367188 253.6875 150.296875 255.113281 150.296875 L 578.296875 150.296875 C 579.722656 150.296875 581.144531 150.367188 582.566406 150.507812 C 583.984375 150.648438 585.394531 150.855469 586.792969 151.136719 C 588.191406 151.414062 589.574219 151.761719 590.9375 152.175781 C 592.304688 152.589844 593.644531 153.070312 594.964844 153.613281 C 596.28125 154.160156 597.570312 154.769531 598.828125 155.441406 C 600.085938 156.113281 601.308594 156.847656 602.492188 157.640625 C 603.679688 158.433594 604.824219 159.28125 605.925781 160.1875 C 607.027344 161.089844 608.082031 162.046875 609.09375 163.054688 C 610.101562 164.066406 611.058594 165.121094 611.960938 166.222656 C 612.867188 167.328125 613.714844 168.472656 614.507812 169.65625 C 615.300781 170.84375 616.03125 172.066406 616.703125 173.324219 C 617.378906 174.582031 617.984375 175.871094 618.53125 177.1875 C 619.078125 178.503906 619.558594 179.847656 619.972656 181.210938 C 620.386719 182.578125 620.730469 183.960938 621.007812 185.359375 C 621.289062 186.757812 621.496094 188.167969 621.636719 189.585938 C 621.773438 191.007812 621.84375 192.429688 621.84375 193.855469 Z M 621.84375 193.855469 " fill-opacity="1" fill-rule="nonzero"/><path fill="#ffffff" d="M 250.816406 177.515625 C 250.816406 178.0625 250.761719 178.601562 250.65625 179.136719 C 250.550781 179.671875 250.390625 180.191406 250.183594 180.695312 C 249.972656 181.199219 249.71875 181.679688 249.414062 182.132812 C 249.113281 182.585938 248.765625 183.003906 248.382812 183.390625 C 247.996094 183.777344 247.574219 184.121094 247.121094 184.425781 C 246.667969 184.726562 246.191406 184.984375 245.6875 185.191406 C 245.179688 185.402344 244.660156 185.558594 244.125 185.664062 C 243.589844 185.773438 243.050781 185.824219 242.503906 185.824219 C 241.960938 185.824219 241.417969 185.773438 240.882812 185.664062 C 240.347656 185.558594 239.828125 185.402344 239.324219 185.191406 C 238.820312 184.984375 238.34375 184.726562 237.890625 184.425781 C 237.4375 184.121094 237.015625 183.777344 236.628906 183.390625 C 236.246094 183.003906 235.898438 182.585938 235.597656 182.132812 C 235.292969 181.679688 235.039062 181.199219 234.828125 180.695312 C 234.621094 180.191406 234.460938 179.671875 234.355469 179.136719 C 234.25 178.601562 234.195312 178.0625 234.195312 177.515625 C 234.195312 176.96875 234.25 176.429688 234.355469 175.894531 C 234.460938 175.359375 234.621094 174.839844 234.828125 174.335938 C 235.039062 173.832031 235.292969 173.351562 235.597656 172.898438 C 235.898438 172.445312 236.246094 172.027344 236.628906 171.640625 C 237.015625 171.253906 237.4375 170.910156 237.890625 170.605469 C 238.34375 170.304688 238.820312 170.046875 239.324219 169.839844 C 239.828125 169.628906 240.351562 169.472656 240.882812 169.367188 C 241.417969 169.257812 241.960938 169.207031 242.503906 169.207031 C 243.050781 169.207031 243.589844 169.257812 244.125 169.367188 C 244.660156 169.472656 245.179688 169.628906 245.6875 169.839844 C 246.191406 170.046875 246.667969 170.304688 247.121094 170.605469 C 247.574219 170.910156 247.996094 171.253906 248.382812 171.640625 C 248.765625 172.027344 249.113281 172.445312 249.414062 172.898438 C 249.71875 173.351562 249.972656 173.832031 250.183594 174.335938 C 250.390625 174.839844 250.550781 175.359375 250.65625 175.894531 C 250.761719 176.429688 250.816406 176.96875 250.816406 177.515625 Z M 250.816406 177.515625 " fill-opacity="1" fill-rule="nonzero"/><path fill="#ffffff" d="M 276.601562 177.515625 C 276.601562 178.0625 276.550781 178.601562 276.441406 179.136719 C 276.335938 179.671875 276.179688 180.191406 275.96875 180.695312 C 275.761719 181.199219 275.503906 181.679688 275.203125 182.132812 C 274.898438 182.585938 274.554688 183.003906 274.167969 183.390625 C 273.785156 183.777344 273.363281 184.121094 272.910156 184.425781 C 272.457031 184.726562 271.976562 184.984375 271.472656 185.191406 C 270.96875 185.402344 270.449219 185.558594 269.914062 185.664062 C 269.378906 185.773438 268.839844 185.824219 268.292969 185.824219 C 267.746094 185.824219 267.207031 185.773438 266.671875 185.664062 C 266.136719 185.558594 265.617188 185.402344 265.113281 185.191406 C 264.609375 184.984375 264.128906 184.726562 263.675781 184.425781 C 263.222656 184.121094 262.804688 183.777344 262.417969 183.390625 C 262.03125 183.003906 261.6875 182.585938 261.382812 182.132812 C 261.082031 181.679688 260.824219 181.199219 260.617188 180.695312 C 260.40625 180.191406 260.25 179.671875 260.144531 179.136719 C 260.039062 178.601562 259.984375 178.0625 259.984375 177.515625 C 259.984375 176.96875 260.039062 176.429688 260.144531 175.894531 C 260.25 175.359375 260.40625 174.839844 260.617188 174.335938 C 260.824219 173.832031 261.082031 173.351562 261.382812 172.898438 C 261.6875 172.445312 262.03125 172.027344 262.417969 171.640625 C 262.804688 171.253906 263.222656 170.910156 263.675781 170.605469 C 264.128906 170.304688 264.609375 170.046875 265.113281 169.839844 C 265.617188 169.628906 266.136719 169.472656 266.671875 169.367188 C 267.207031 169.257812 267.746094 169.207031 268.292969 169.207031 C 268.839844 169.207031 269.378906 169.257812 269.914062 169.367188 C 270.449219 169.472656 270.96875 169.628906 271.472656 169.839844 C 271.976562 170.046875 272.457031 170.304688 272.910156 170.605469 C 273.363281 170.910156 273.785156 171.253906 274.167969 171.640625 C 274.554688 172.027344 274.898438 172.445312 275.203125 172.898438 C 275.503906 173.351562 275.761719 173.832031 275.96875 174.335938 C 276.179688 174.839844 276.335938 175.359375 276.441406 175.894531 C 276.550781 176.429688 276.601562 176.96875 276.601562 177.515625 Z M 276.601562 177.515625 " fill-opacity="1" fill-rule="nonzero"/><path fill="#ffffff" d="M 302.386719 177.515625 C 302.386719 178.0625 302.332031 178.601562 302.226562 179.136719 C 302.121094 179.671875 301.960938 180.191406 301.753906 180.695312 C 301.546875 181.199219 301.289062 181.679688 300.984375 182.132812 C 300.683594 182.585938 300.339844 183.003906 299.953125 183.390625 C 299.566406 183.777344 299.148438 184.121094 298.695312 184.425781 C 298.238281 184.726562 297.761719 184.984375 297.257812 185.191406 C 296.753906 185.402344 296.234375 185.558594 295.699219 185.664062 C 295.164062 185.773438 294.621094 185.824219 294.078125 185.824219 C 293.53125 185.824219 292.992188 185.773438 292.457031 185.664062 C 291.921875 185.558594 291.402344 185.402344 290.898438 185.191406 C 290.394531 184.984375 289.914062 184.726562 289.460938 184.425781 C 289.007812 184.121094 288.585938 183.777344 288.203125 183.390625 C 287.816406 183.003906 287.472656 182.585938 287.167969 182.132812 C 286.863281 181.679688 286.609375 181.199219 286.402344 180.695312 C 286.191406 180.191406 286.035156 179.671875 285.925781 179.136719 C 285.820312 178.601562 285.769531 178.0625 285.769531 177.515625 C 285.769531 176.96875 285.820312 176.429688 285.925781 175.894531 C 286.035156 175.359375 286.191406 174.839844 286.402344 174.335938 C 286.609375 173.832031 286.863281 173.351562 287.167969 172.898438 C 287.472656 172.445312 287.816406 172.027344 288.203125 171.640625 C 288.585938 171.253906 289.007812 170.910156 289.460938 170.605469 C 289.914062 170.304688 290.394531 170.046875 290.898438 169.839844 C 291.402344 169.628906 291.921875 169.472656 292.457031 169.367188 C 292.992188 169.257812 293.53125 169.207031 294.078125 169.207031 C 294.621094 169.207031 295.164062 169.257812 295.699219 169.367188 C 296.234375 169.472656 296.753906 169.628906 297.257812 169.839844 C 297.761719 170.046875 298.238281 170.304688 298.695312 170.605469 C 299.148438 170.910156 299.566406 171.253906 299.953125 171.640625 C 300.339844 172.027344 300.683594 172.445312 300.984375 172.898438 C 301.289062 173.351562 301.546875 173.832031 301.753906 174.335938 C 301.960938 174.839844 302.121094 175.359375 302.226562 175.894531 C 302.332031 176.429688 302.386719 176.96875 302.386719 177.515625 Z M 302.386719 177.515625 " fill-opacity="1" fill-rule="nonzero"/><g clip-path="url(#8a763a190a)"><path fill="#0f8b8d" d="M 578.296875 864.328125 L 255.113281 864.328125 C 253.617188 864.328125 252.121094 864.25 250.628906 864.105469 C 249.140625 863.957031 247.660156 863.734375 246.191406 863.441406 C 244.71875 863.148438 243.269531 862.78125 241.835938 862.347656 C 240.402344 861.910156 238.992188 861.40625 237.609375 860.832031 C 236.226562 860.257812 234.871094 859.617188 233.550781 858.910156 C 232.230469 858.203125 230.945312 857.433594 229.699219 856.597656 C 228.453125 855.765625 227.253906 854.875 226.09375 853.925781 C 224.9375 852.972656 223.828125 851.96875 222.769531 850.910156 C 221.707031 849.847656 220.703125 848.738281 219.753906 847.582031 C 218.800781 846.425781 217.910156 845.222656 217.078125 843.976562 C 216.246094 842.730469 215.476562 841.445312 214.769531 840.125 C 214.0625 838.804688 213.421875 837.453125 212.847656 836.066406 C 212.273438 834.683594 211.765625 833.273438 211.332031 831.839844 C 210.894531 830.40625 210.53125 828.957031 210.238281 827.488281 C 209.941406 826.019531 209.722656 824.539062 209.574219 823.046875 C 209.425781 821.554688 209.351562 820.058594 209.347656 818.5625 L 209.347656 464.714844 L 208.664062 194.378906 C 208.660156 192.878906 208.734375 191.382812 208.875 189.890625 C 209.019531 188.402344 209.238281 186.917969 209.527344 185.449219 C 209.816406 183.980469 210.179688 182.527344 210.609375 181.09375 C 211.042969 179.65625 211.542969 178.246094 212.117188 176.863281 C 212.6875 175.476562 213.324219 174.121094 214.027344 172.800781 C 214.730469 171.476562 215.496094 170.191406 216.324219 168.941406 C 217.15625 167.695312 218.042969 166.492188 218.992188 165.328125 C 219.941406 164.167969 220.941406 163.058594 222 161.996094 C 223.054688 160.933594 224.160156 159.925781 225.316406 158.972656 C 226.472656 158.015625 227.671875 157.121094 228.917969 156.285156 C 230.160156 155.449219 231.441406 154.675781 232.761719 153.964844 C 234.082031 153.257812 235.429688 152.613281 236.8125 152.035156 C 238.195312 151.457031 239.605469 150.949219 241.035156 150.507812 C 242.46875 150.066406 243.917969 149.699219 245.386719 149.402344 C 246.855469 149.105469 248.335938 148.878906 249.828125 148.726562 C 251.316406 148.574219 252.8125 148.496094 254.3125 148.492188 L 577.492188 147.671875 L 577.609375 147.671875 C 579.105469 147.671875 580.601562 147.746094 582.089844 147.890625 C 583.578125 148.039062 585.058594 148.257812 586.523438 148.546875 C 587.992188 148.839844 589.441406 149.203125 590.875 149.636719 C 592.308594 150.070312 593.714844 150.574219 595.097656 151.144531 C 596.480469 151.714844 597.832031 152.355469 599.152344 153.058594 C 600.472656 153.761719 601.753906 154.53125 603 155.359375 C 604.246094 156.191406 605.445312 157.082031 606.605469 158.027344 C 607.761719 158.976562 608.871094 159.980469 609.929688 161.035156 C 610.988281 162.09375 611.992188 163.199219 612.945312 164.355469 C 613.894531 165.511719 614.789062 166.710938 615.621094 167.953125 C 616.453125 169.195312 617.226562 170.476562 617.933594 171.792969 C 618.640625 173.113281 619.28125 174.460938 619.855469 175.84375 C 620.433594 177.226562 620.9375 178.632812 621.375 180.0625 C 621.8125 181.492188 622.179688 182.941406 622.472656 184.410156 C 622.769531 185.878906 622.992188 187.355469 623.140625 188.84375 C 623.292969 190.332031 623.371094 191.824219 623.375 193.320312 L 624.0625 231.585938 L 624.0625 464.195312 L 624.859375 780.320312 L 624.0625 818.585938 C 624.058594 820.082031 623.984375 821.578125 623.835938 823.070312 C 623.6875 824.558594 623.464844 826.039062 623.171875 827.507812 C 622.875 828.976562 622.511719 830.425781 622.074219 831.859375 C 621.636719 833.292969 621.132812 834.703125 620.558594 836.085938 C 619.984375 837.46875 619.34375 838.820312 618.636719 840.140625 C 617.929688 841.460938 617.15625 842.742188 616.324219 843.988281 C 615.492188 845.234375 614.601562 846.433594 613.648438 847.59375 C 612.699219 848.75 611.695312 849.859375 610.632812 850.917969 C 609.574219 851.976562 608.464844 852.980469 607.308594 853.929688 C 606.148438 854.882812 604.949219 855.773438 603.703125 856.605469 C 602.457031 857.4375 601.175781 858.207031 599.851562 858.914062 C 598.53125 859.621094 597.179688 860.257812 595.796875 860.832031 C 594.414062 861.40625 593.003906 861.910156 591.570312 862.347656 C 590.136719 862.78125 588.6875 863.148438 587.21875 863.441406 C 585.75 863.734375 584.269531 863.957031 582.777344 864.105469 C 581.289062 864.25 579.792969 864.328125 578.296875 864.328125 Z M 577.609375 152.101562 L 577.503906 152.101562 L 254.324219 152.921875 C 252.96875 152.925781 251.621094 153 250.273438 153.136719 C 248.925781 153.273438 247.589844 153.476562 246.265625 153.746094 C 244.9375 154.011719 243.628906 154.347656 242.332031 154.742188 C 241.039062 155.140625 239.769531 155.597656 238.519531 156.121094 C 237.273438 156.644531 236.050781 157.222656 234.859375 157.867188 C 233.667969 158.507812 232.511719 159.207031 231.386719 159.960938 C 230.265625 160.714844 229.179688 161.523438 228.136719 162.386719 C 227.09375 163.246094 226.09375 164.15625 225.140625 165.117188 C 224.183594 166.074219 223.28125 167.078125 222.425781 168.128906 C 221.566406 169.175781 220.765625 170.261719 220.015625 171.390625 C 219.265625 172.515625 218.574219 173.679688 217.9375 174.875 C 217.304688 176.066406 216.726562 177.292969 216.214844 178.542969 C 215.699219 179.792969 215.246094 181.066406 214.855469 182.363281 C 214.464844 183.660156 214.136719 184.972656 213.875 186.296875 C 213.613281 187.625 213.417969 188.964844 213.289062 190.3125 C 213.15625 191.65625 213.09375 193.007812 213.09375 194.359375 L 213.78125 464.699219 L 213.78125 818.554688 C 213.78125 819.90625 213.847656 821.257812 213.984375 822.605469 C 214.117188 823.949219 214.316406 825.289062 214.582031 826.613281 C 214.847656 827.941406 215.175781 829.25 215.570312 830.546875 C 215.964844 831.839844 216.421875 833.113281 216.9375 834.363281 C 217.457031 835.613281 218.035156 836.835938 218.675781 838.027344 C 219.3125 839.222656 220.007812 840.378906 220.761719 841.503906 C 221.511719 842.628906 222.316406 843.714844 223.175781 844.761719 C 224.035156 845.808594 224.941406 846.808594 225.898438 847.765625 C 226.855469 848.722656 227.859375 849.628906 228.902344 850.488281 C 229.949219 851.347656 231.035156 852.152344 232.160156 852.90625 C 233.285156 853.65625 234.445312 854.351562 235.636719 854.992188 C 236.832031 855.628906 238.050781 856.207031 239.300781 856.726562 C 240.550781 857.246094 241.824219 857.699219 243.117188 858.09375 C 244.414062 858.488281 245.722656 858.816406 247.050781 859.082031 C 248.378906 859.347656 249.714844 859.546875 251.0625 859.683594 C 252.40625 859.816406 253.757812 859.882812 255.109375 859.886719 L 578.292969 859.886719 C 579.644531 859.882812 580.996094 859.816406 582.339844 859.679688 C 583.6875 859.546875 585.023438 859.347656 586.351562 859.082031 C 587.675781 858.816406 588.988281 858.488281 590.28125 858.09375 C 591.578125 857.699219 592.847656 857.246094 594.097656 856.726562 C 595.347656 856.207031 596.570312 855.628906 597.761719 854.992188 C 598.953125 854.351562 600.113281 853.65625 601.238281 852.90625 C 602.363281 852.152344 603.449219 851.347656 604.496094 850.488281 C 605.539062 849.632812 606.542969 848.722656 607.496094 847.765625 C 608.453125 846.808594 609.363281 845.808594 610.222656 844.761719 C 611.078125 843.71875 611.886719 842.632812 612.636719 841.507812 C 613.390625 840.382812 614.085938 839.222656 614.722656 838.03125 C 615.359375 836.839844 615.941406 835.617188 616.457031 834.367188 C 616.976562 833.117188 617.433594 831.847656 617.828125 830.550781 C 618.222656 829.257812 618.550781 827.945312 618.816406 826.621094 C 619.082031 825.292969 619.28125 823.957031 619.414062 822.609375 C 619.550781 821.265625 619.617188 819.914062 619.617188 818.5625 L 620.414062 775.875 L 619.617188 464.195312 L 619.617188 236.019531 L 618.929688 193.332031 C 618.925781 191.980469 618.859375 190.632812 618.722656 189.289062 C 618.585938 187.945312 618.386719 186.609375 618.117188 185.285156 C 617.851562 183.960938 617.519531 182.652344 617.125 181.359375 C 616.730469 180.066406 616.273438 178.796875 615.753906 177.550781 C 615.234375 176.300781 614.65625 175.082031 614.015625 173.890625 C 613.378906 172.699219 612.679688 171.542969 611.929688 170.421875 C 611.175781 169.296875 610.371094 168.214844 609.511719 167.171875 C 608.652344 166.128906 607.746094 165.128906 606.789062 164.175781 C 605.832031 163.222656 604.832031 162.316406 603.785156 161.460938 C 602.738281 160.601562 601.652344 159.800781 600.53125 159.050781 C 599.40625 158.300781 598.246094 157.605469 597.054688 156.972656 C 595.863281 156.335938 594.640625 155.757812 593.390625 155.242188 C 592.144531 154.726562 590.871094 154.273438 589.578125 153.878906 C 588.285156 153.488281 586.976562 153.160156 585.648438 152.898438 C 584.324219 152.632812 582.988281 152.4375 581.644531 152.304688 C 580.296875 152.171875 578.949219 152.105469 577.597656 152.105469 Z M 577.609375 152.101562 " fill-opacity="1" fill-rule="nonzero"/></g><path fill="#18b7c9" d="M 377.035156 270.195312 L 556.515625 270.195312 L 556.515625 285.152344 L 377.035156 285.152344 Z M 377.035156 270.195312 " fill-opacity="1" fill-rule="nonzero"/><path fill="#0a5c5d" d="M 484.53125 296.375 L 556.511719 296.375 L 556.511719 311.332031 L 484.53125 311.332031 Z M 484.53125 296.375 " fill-opacity="1" fill-rule="nonzero"/><path fill="#18b7c9" d="M 434.054688 322.546875 L 556.511719 322.546875 L 556.511719 337.503906 L 434.054688 337.503906 Z M 434.054688 322.546875 " fill-opacity="1" fill-rule="nonzero"/><path fill="#0a5c5d" d="M 377.035156 348.722656 L 494.816406 348.722656 L 494.816406 363.679688 L 377.035156 363.679688 Z M 377.035156 348.722656 " fill-opacity="1" fill-rule="nonzero"/><path fill="#18b7c9" d="M 518.1875 348.722656 L 556.511719 348.722656 L 556.511719 363.679688 L 518.1875 363.679688 Z M 518.1875 348.722656 " fill-opacity="1" fill-rule="nonzero"/><path fill="#0a5c5d" d="M 524.167969 741.804688 L 517.625 741.804688 L 517.625 680.574219 L 343.753906 680.574219 L 343.753906 511.375 L 456.863281 511.375 L 456.863281 412.753906 L 463.40625 412.753906 L 463.40625 517.917969 L 350.296875 517.917969 L 350.296875 674.027344 L 524.167969 674.027344 Z M 524.167969 741.804688 " fill-opacity="1" fill-rule="nonzero"/><path fill="#18b7c9" d="M 315.898438 570.734375 L 309.355469 570.734375 L 309.355469 561.386719 L 315.898438 561.386719 Z M 315.898438 552.019531 L 309.355469 552.019531 L 309.355469 542.671875 L 315.898438 542.671875 Z M 315.898438 533.308594 L 309.355469 533.308594 L 309.355469 523.996094 L 315.898438 523.996094 Z M 315.898438 514.59375 L 309.355469 514.59375 L 309.355469 505.300781 L 315.898438 505.300781 Z M 315.898438 495.882812 L 309.355469 495.882812 L 309.355469 486.136719 L 315.4375 486.136719 L 315.4375 489.410156 L 315.902344 489.410156 Z M 408.910156 492.609375 L 399.5625 492.609375 L 399.5625 486.136719 L 408.910156 486.136719 Z M 390.195312 492.609375 L 380.867188 492.609375 L 380.867188 486.136719 L 390.21875 486.136719 Z M 371.484375 492.609375 L 362.171875 492.609375 L 362.171875 486.136719 L 371.519531 486.136719 Z M 352.773438 492.609375 L 343.476562 492.609375 L 343.476562 486.136719 L 352.824219 486.136719 Z M 334.058594 492.609375 L 324.777344 492.609375 L 324.777344 486.136719 L 334.125 486.136719 Z M 334.058594 492.609375 " fill-opacity="1" fill-rule="nonzero"/><path fill="#18b7c9" d="M 520.621094 618.40625 L 514.074219 618.40625 L 514.074219 612.796875 L 520.621094 612.796875 Z M 520.621094 603.449219 L 514.074219 603.449219 L 514.074219 594.101562 L 520.621094 594.101562 Z M 520.621094 584.738281 L 514.074219 584.738281 L 514.074219 575.386719 L 520.621094 575.386719 Z M 520.621094 566.023438 L 514.074219 566.023438 L 514.074219 556.675781 L 520.621094 556.675781 Z M 520.621094 547.3125 L 514.074219 547.3125 L 514.074219 537.960938 L 520.621094 537.960938 Z M 520.621094 528.597656 L 514.074219 528.597656 L 514.074219 519.25 L 520.621094 519.25 Z M 520.621094 509.886719 L 514.074219 509.886719 L 514.074219 500.625 L 520.621094 500.625 Z M 520.621094 491.171875 L 514.074219 491.171875 L 514.074219 481.929688 L 520.621094 481.929688 Z M 520.621094 472.460938 L 514.074219 472.460938 L 514.074219 463.230469 L 520.621094 463.230469 Z M 520.621094 472.460938 " fill-opacity="1" fill-rule="nonzero"/><path fill="#18b7c9" d="M 495.398438 714.230469 L 486.050781 714.230469 L 486.050781 707.6875 L 495.398438 707.6875 Z M 476.6875 714.230469 L 467.335938 714.230469 L 467.335938 707.6875 L 476.6875 707.6875 Z M 457.972656 714.230469 L 448.625 714.230469 L 448.625 707.6875 L 457.972656 707.6875 Z M 439.261719 714.230469 L 429.945312 714.230469 L 429.945312 707.6875 L 439.292969 707.6875 Z M 420.546875 714.230469 L 411.199219 714.230469 L 411.199219 707.6875 L 420.546875 707.6875 Z M 401.835938 714.230469 L 392.550781 714.230469 L 392.550781 707.6875 L 401.898438 707.6875 Z M 383.121094 714.230469 L 373.855469 714.230469 L 373.855469 707.6875 L 383.203125 707.6875 Z M 364.410156 714.230469 L 355.160156 714.230469 L 355.160156 707.6875 L 364.507812 707.6875 Z M 345.695312 714.230469 L 340.203125 714.230469 L 340.203125 707.6875 L 345.8125 707.6875 Z M 345.695312 714.230469 " fill-opacity="1" fill-rule="nonzero"/><path fill="#ffffff" d="M 97.308594 228.214844 L 329.257812 228.214844 C 330.167969 228.214844 331.070312 228.304688 331.960938 228.480469 C 332.855469 228.660156 333.722656 228.921875 334.5625 229.269531 C 335.402344 229.617188 336.203125 230.046875 336.960938 230.550781 C 337.714844 231.058594 338.417969 231.632812 339.058594 232.277344 C 339.703125 232.917969 340.277344 233.621094 340.785156 234.375 C 341.289062 235.132812 341.71875 235.933594 342.066406 236.773438 C 342.414062 237.613281 342.675781 238.480469 342.855469 239.375 C 343.03125 240.265625 343.121094 241.167969 343.121094 242.078125 L 343.121094 417.71875 C 343.121094 418.628906 343.03125 419.53125 342.855469 420.425781 C 342.675781 421.316406 342.414062 422.183594 342.066406 423.023438 C 341.71875 423.867188 341.289062 424.664062 340.785156 425.421875 C 340.277344 426.179688 339.703125 426.878906 339.058594 427.523438 C 338.417969 428.164062 337.714844 428.742188 336.960938 429.246094 C 336.203125 429.753906 335.402344 430.179688 334.5625 430.527344 C 333.722656 430.875 332.855469 431.140625 331.960938 431.316406 C 331.070312 431.492188 330.167969 431.582031 329.257812 431.582031 L 97.308594 431.582031 C 96.398438 431.582031 95.496094 431.492188 94.601562 431.316406 C 93.710938 431.140625 92.84375 430.875 92 430.527344 C 91.160156 430.179688 90.363281 429.753906 89.605469 429.246094 C 88.847656 428.742188 88.148438 428.164062 87.503906 427.523438 C 86.859375 426.878906 86.285156 426.179688 85.78125 425.421875 C 85.273438 424.664062 84.847656 423.867188 84.5 423.023438 C 84.152344 422.183594 83.886719 421.316406 83.710938 420.425781 C 83.53125 419.53125 83.445312 418.628906 83.445312 417.71875 L 83.445312 242.078125 C 83.445312 241.167969 83.53125 240.265625 83.710938 239.375 C 83.886719 238.480469 84.152344 237.613281 84.5 236.773438 C 84.847656 235.933594 85.273438 235.132812 85.78125 234.375 C 86.285156 233.621094 86.859375 232.917969 87.503906 232.277344 C 88.148438 231.632812 88.847656 231.058594 89.605469 230.550781 C 90.363281 230.046875 91.160156 229.617188 92 229.269531 C 92.84375 228.921875 93.710938 228.660156 94.601562 228.480469 C 95.496094 228.304688 96.398438 228.214844 97.308594 228.214844 Z M 97.308594 228.214844 " fill-opacity="1" fill-rule="nonzero"/><path fill="#18b7c9" d="M 343.152344 242.125 L 343.152344 268.835938 L 83.476562 268.738281 L 83.476562 242.027344 C 83.476562 241.117188 83.566406 240.214844 83.742188 239.320312 C 83.921875 238.429688 84.183594 237.5625 84.53125 236.722656 C 84.882812 235.878906 85.308594 235.082031 85.816406 234.324219 C 86.320312 233.566406 86.894531 232.867188 87.539062 232.222656 C 88.183594 231.582031 88.886719 231.003906 89.640625 230.5 C 90.398438 229.996094 91.199219 229.566406 92.039062 229.21875 C 92.882812 228.871094 93.75 228.609375 94.640625 228.433594 C 95.535156 228.253906 96.4375 228.167969 97.347656 228.167969 L 329.292969 228.253906 C 330.203125 228.253906 331.105469 228.34375 332 228.523438 C 332.890625 228.699219 333.757812 228.964844 334.597656 229.3125 C 335.441406 229.660156 336.238281 230.089844 336.996094 230.59375 C 337.753906 231.101562 338.453125 231.675781 339.097656 232.320312 C 339.738281 232.964844 340.3125 233.664062 340.820312 234.421875 C 341.324219 235.179688 341.75 235.976562 342.101562 236.820312 C 342.449219 237.660156 342.710938 238.527344 342.886719 239.421875 C 343.066406 240.3125 343.152344 241.214844 343.152344 242.125 Z M 343.152344 242.125 " fill-opacity="1" fill-rule="nonzero"/><path fill="#ffffff" d="M 120.074219 248.464844 C 120.074219 248.839844 120.035156 249.210938 119.964844 249.578125 C 119.890625 249.949219 119.78125 250.304688 119.636719 250.652344 C 119.496094 250.996094 119.316406 251.328125 119.109375 251.640625 C 118.902344 251.949219 118.664062 252.238281 118.398438 252.503906 C 118.132812 252.769531 117.84375 253.007812 117.535156 253.214844 C 117.222656 253.421875 116.890625 253.601562 116.546875 253.742188 C 116.199219 253.886719 115.84375 253.996094 115.472656 254.066406 C 115.105469 254.140625 114.734375 254.179688 114.359375 254.179688 C 113.984375 254.179688 113.613281 254.140625 113.246094 254.066406 C 112.875 253.996094 112.519531 253.886719 112.171875 253.742188 C 111.828125 253.601562 111.496094 253.421875 111.183594 253.214844 C 110.875 253.007812 110.585938 252.769531 110.320312 252.503906 C 110.054688 252.238281 109.816406 251.949219 109.609375 251.640625 C 109.402344 251.328125 109.222656 250.996094 109.082031 250.652344 C 108.9375 250.304688 108.828125 249.949219 108.753906 249.578125 C 108.683594 249.210938 108.644531 248.839844 108.644531 248.464844 C 108.644531 248.089844 108.683594 247.71875 108.753906 247.351562 C 108.828125 246.980469 108.9375 246.625 109.082031 246.277344 C 109.222656 245.933594 109.402344 245.601562 109.609375 245.289062 C 109.816406 244.980469 110.054688 244.691406 110.320312 244.425781 C 110.585938 244.160156 110.875 243.921875 111.183594 243.714844 C 111.496094 243.503906 111.828125 243.328125 112.171875 243.1875 C 112.519531 243.042969 112.875 242.933594 113.246094 242.859375 C 113.613281 242.789062 113.984375 242.75 114.359375 242.75 C 114.734375 242.75 115.105469 242.789062 115.472656 242.859375 C 115.84375 242.933594 116.199219 243.042969 116.546875 243.1875 C 116.890625 243.328125 117.222656 243.503906 117.535156 243.714844 C 117.84375 243.921875 118.132812 244.160156 118.398438 244.425781 C 118.664062 244.691406 118.902344 244.980469 119.109375 245.289062 C 119.316406 245.601562 119.496094 245.933594 119.636719 246.277344 C 119.78125 246.625 119.890625 246.980469 119.964844 247.351562 C 120.035156 247.71875 120.074219 248.089844 120.074219 248.464844 Z M 120.074219 248.464844 " fill-opacity="1" fill-rule="nonzero"/><path fill="#ffffff" d="M 137.625 248.472656 C 137.625 248.847656 137.589844 249.21875 137.515625 249.585938 C 137.445312 249.957031 137.335938 250.3125 137.191406 250.660156 C 137.046875 251.003906 136.871094 251.335938 136.664062 251.648438 C 136.457031 251.957031 136.21875 252.246094 135.953125 252.511719 C 135.6875 252.777344 135.398438 253.015625 135.085938 253.222656 C 134.777344 253.429688 134.445312 253.609375 134.101562 253.75 C 133.753906 253.894531 133.394531 254.003906 133.027344 254.078125 C 132.660156 254.148438 132.289062 254.1875 131.914062 254.1875 C 131.539062 254.1875 131.167969 254.148438 130.800781 254.078125 C 130.429688 254.003906 130.074219 253.894531 129.726562 253.75 C 129.378906 253.609375 129.050781 253.429688 128.738281 253.222656 C 128.425781 253.015625 128.140625 252.777344 127.875 252.511719 C 127.609375 252.246094 127.371094 251.957031 127.164062 251.648438 C 126.953125 251.335938 126.777344 251.003906 126.636719 250.660156 C 126.492188 250.3125 126.382812 249.957031 126.308594 249.585938 C 126.238281 249.21875 126.199219 248.847656 126.199219 248.472656 C 126.199219 248.097656 126.238281 247.726562 126.308594 247.359375 C 126.382812 246.988281 126.492188 246.632812 126.636719 246.285156 C 126.777344 245.941406 126.953125 245.609375 127.164062 245.296875 C 127.371094 244.988281 127.609375 244.699219 127.875 244.433594 C 128.140625 244.167969 128.425781 243.929688 128.738281 243.722656 C 129.050781 243.515625 129.378906 243.335938 129.726562 243.195312 C 130.074219 243.050781 130.429688 242.941406 130.800781 242.871094 C 131.167969 242.796875 131.539062 242.757812 131.914062 242.757812 C 132.289062 242.757812 132.660156 242.796875 133.027344 242.871094 C 133.394531 242.941406 133.753906 243.050781 134.101562 243.195312 C 134.445312 243.335938 134.777344 243.515625 135.085938 243.722656 C 135.398438 243.929688 135.6875 244.167969 135.953125 244.433594 C 136.21875 244.699219 136.457031 244.988281 136.664062 245.296875 C 136.871094 245.609375 137.046875 245.941406 137.191406 246.285156 C 137.335938 246.632812 137.445312 246.988281 137.515625 247.359375 C 137.589844 247.726562 137.625 248.097656 137.625 248.472656 Z M 137.625 248.472656 " fill-opacity="1" fill-rule="nonzero"/><path fill="#ffffff" d="M 155.179688 248.476562 C 155.179688 248.851562 155.144531 249.222656 155.070312 249.589844 C 155 249.960938 154.890625 250.316406 154.746094 250.664062 C 154.601562 251.007812 154.425781 251.339844 154.21875 251.652344 C 154.007812 251.960938 153.773438 252.25 153.507812 252.515625 C 153.242188 252.78125 152.953125 253.019531 152.640625 253.226562 C 152.328125 253.4375 152 253.613281 151.652344 253.753906 C 151.308594 253.898438 150.949219 254.007812 150.582031 254.082031 C 150.214844 254.152344 149.84375 254.191406 149.46875 254.191406 C 149.09375 254.191406 148.722656 254.152344 148.351562 254.082031 C 147.984375 254.007812 147.628906 253.898438 147.28125 253.753906 C 146.933594 253.613281 146.605469 253.4375 146.292969 253.226562 C 145.980469 253.019531 145.691406 252.78125 145.429688 252.515625 C 145.164062 252.25 144.925781 251.960938 144.71875 251.652344 C 144.507812 251.339844 144.332031 251.007812 144.1875 250.664062 C 144.046875 250.316406 143.9375 249.960938 143.863281 249.589844 C 143.789062 249.222656 143.753906 248.851562 143.753906 248.476562 C 143.753906 248.101562 143.789062 247.730469 143.863281 247.363281 C 143.9375 246.996094 144.046875 246.636719 144.1875 246.289062 C 144.332031 245.945312 144.507812 245.613281 144.71875 245.300781 C 144.925781 244.992188 145.164062 244.703125 145.429688 244.4375 C 145.691406 244.171875 145.980469 243.933594 146.292969 243.726562 C 146.605469 243.519531 146.933594 243.339844 147.28125 243.199219 C 147.628906 243.054688 147.984375 242.945312 148.351562 242.875 C 148.722656 242.800781 149.09375 242.761719 149.46875 242.761719 C 149.84375 242.761719 150.214844 242.800781 150.582031 242.875 C 150.949219 242.945312 151.308594 243.054688 151.652344 243.199219 C 152 243.339844 152.328125 243.519531 152.640625 243.726562 C 152.953125 243.933594 153.242188 244.171875 153.507812 244.4375 C 153.773438 244.703125 154.007812 244.992188 154.21875 245.300781 C 154.425781 245.613281 154.601562 245.945312 154.746094 246.289062 C 154.890625 246.636719 155 246.996094 155.070312 247.363281 C 155.144531 247.730469 155.179688 248.101562 155.179688 248.476562 Z M 155.179688 248.476562 " fill-opacity="1" fill-rule="nonzero"/><path fill="#18b7c9" d="M 108.628906 284.160156 L 141.421875 284.160156 L 141.421875 288.628906 L 108.628906 288.628906 Z M 108.628906 284.160156 " fill-opacity="1" fill-rule="nonzero"/><path fill="#0a5c5d" d="M 147.386719 284.179688 L 209.820312 284.179688 L 209.820312 288.648438 L 147.386719 288.648438 Z M 147.386719 284.179688 " fill-opacity="1" fill-rule="nonzero"/><path fill="#18b7c9" d="M 216.441406 284.199219 L 248.574219 284.199219 L 248.574219 288.667969 L 216.441406 288.667969 Z M 216.441406 284.199219 " fill-opacity="1" fill-rule="nonzero"/><path fill="#0a5c5d" d="M 125.023438 296.421875 L 157.8125 296.421875 L 157.8125 300.890625 L 125.023438 300.890625 Z M 125.023438 296.421875 " fill-opacity="1" fill-rule="nonzero"/><path fill="#18b7c9" d="M 164.269531 296.433594 L 197.0625 296.433594 L 197.0625 300.902344 L 164.269531 300.902344 Z M 164.269531 296.433594 " fill-opacity="1" fill-rule="nonzero"/><path fill="#0a5c5d" d="M 204.183594 296.449219 L 226.707031 296.449219 L 226.707031 300.921875 L 204.183594 300.921875 Z M 204.183594 296.449219 " fill-opacity="1" fill-rule="nonzero"/><path fill="#18b7c9" d="M 137.601562 308.679688 L 184.304688 308.679688 L 184.304688 313.152344 L 137.601562 313.152344 Z M 137.601562 308.679688 " fill-opacity="1" fill-rule="nonzero"/><path fill="#0a5c5d" d="M 190.761719 308.703125 L 237.464844 308.703125 L 237.464844 313.175781 L 190.761719 313.175781 Z M 190.761719 308.703125 " fill-opacity="1" fill-rule="nonzero"/><path fill="#18b7c9" d="M 108.617188 320.925781 L 149.027344 320.925781 L 149.027344 325.398438 L 108.617188 325.398438 Z M 108.617188 320.925781 " fill-opacity="1" fill-rule="nonzero"/><path fill="#0a5c5d" d="M 157.804688 320.941406 L 193.082031 320.941406 L 193.082031 325.414062 L 157.804688 325.414062 Z M 157.804688 320.941406 " fill-opacity="1" fill-rule="nonzero"/><path fill="#18b7c9" d="M 202.1875 320.957031 L 226.695312 320.957031 L 226.695312 325.429688 L 202.1875 325.429688 Z M 202.1875 320.957031 " fill-opacity="1" fill-rule="nonzero"/><path fill="#18b7c9" d="M 133.621094 333.191406 L 176.511719 333.191406 L 176.511719 337.660156 L 133.621094 337.660156 Z M 133.621094 333.191406 " fill-opacity="1" fill-rule="nonzero"/><path fill="#18b7c9" d="M 184.128906 333.210938 L 227.023438 333.210938 L 227.023438 337.679688 L 184.128906 337.679688 Z M 184.128906 333.210938 " fill-opacity="1" fill-rule="nonzero"/><path fill="#18b7c9" d="M 118.050781 345.4375 L 141.402344 345.4375 L 141.402344 349.90625 L 118.050781 349.90625 Z M 118.050781 345.4375 " fill-opacity="1" fill-rule="nonzero"/><path fill="#0a5c5d" d="M 147.363281 345.449219 L 187.605469 345.449219 L 187.605469 349.917969 L 147.363281 349.917969 Z M 147.363281 345.449219 " fill-opacity="1" fill-rule="nonzero"/><path fill="#18b7c9" d="M 193.066406 345.464844 L 229.335938 345.464844 L 229.335938 349.933594 L 193.066406 349.933594 Z M 193.066406 345.464844 " fill-opacity="1" fill-rule="nonzero"/><path fill="#18b7c9" d="M 119.039062 357.699219 L 181.472656 357.699219 L 181.472656 362.171875 L 119.039062 362.171875 Z M 119.039062 357.699219 " fill-opacity="1" fill-rule="nonzero"/><path fill="#18b7c9" d="M 188.09375 357.71875 L 220.226562 357.71875 L 220.226562 362.191406 L 188.09375 362.191406 Z M 188.09375 357.71875 " fill-opacity="1" fill-rule="nonzero"/><path fill="#0a5c5d" d="M 108.597656 369.941406 L 141.390625 369.941406 L 141.390625 374.414062 L 108.597656 374.414062 Z M 108.597656 369.941406 " fill-opacity="1" fill-rule="nonzero"/><path fill="#18b7c9" d="M 147.355469 369.964844 L 209.789062 369.964844 L 209.789062 374.4375 L 147.355469 374.4375 Z M 147.355469 369.964844 " fill-opacity="1" fill-rule="nonzero"/><path fill="#0a5c5d" d="M 216.410156 369.984375 L 248.542969 369.984375 L 248.542969 374.457031 L 216.410156 374.457031 Z M 216.410156 369.984375 " fill-opacity="1" fill-rule="nonzero"/><path fill="#18b7c9" d="M 120.1875 382.203125 L 152.980469 382.203125 L 152.980469 386.675781 L 120.1875 386.675781 Z M 120.1875 382.203125 " fill-opacity="1" fill-rule="nonzero"/><path fill="#0a5c5d" d="M 158.941406 382.226562 L 221.375 382.226562 L 221.375 386.695312 L 158.941406 386.695312 Z M 158.941406 382.226562 " fill-opacity="1" fill-rule="nonzero"/><path fill="#0a5c5d" d="M 108.589844 394.457031 L 141.382812 394.457031 L 141.382812 398.925781 L 108.589844 398.925781 Z M 108.589844 394.457031 " fill-opacity="1" fill-rule="nonzero"/><path fill="#18b7c9" d="M 147.339844 394.476562 L 209.777344 394.476562 L 209.777344 398.945312 L 147.339844 398.945312 Z M 147.339844 394.476562 " fill-opacity="1" fill-rule="nonzero"/><path fill="#0a5c5d" d="M 216.402344 394.496094 L 248.535156 394.496094 L 248.535156 398.96875 L 216.402344 398.96875 Z M 216.402344 394.496094 " fill-opacity="1" fill-rule="nonzero"/><g clip-path="url(#91027cda1f)"><path fill="#0f8b8d" d="M 329.222656 433.839844 L 97.253906 433.753906 C 96.730469 433.75 96.203125 433.726562 95.679688 433.671875 C 95.15625 433.621094 94.636719 433.542969 94.121094 433.441406 C 93.605469 433.335938 93.09375 433.207031 92.589844 433.054688 C 92.085938 432.902344 91.59375 432.722656 91.105469 432.523438 C 90.621094 432.320312 90.144531 432.09375 89.683594 431.847656 C 89.21875 431.597656 88.765625 431.328125 88.328125 431.035156 C 87.890625 430.742188 87.46875 430.429688 87.0625 430.09375 C 86.65625 429.761719 86.265625 429.40625 85.894531 429.035156 C 85.523438 428.664062 85.171875 428.273438 84.835938 427.867188 C 84.503906 427.460938 84.191406 427.035156 83.898438 426.597656 C 83.605469 426.160156 83.335938 425.710938 83.085938 425.246094 C 82.839844 424.78125 82.613281 424.308594 82.414062 423.820312 C 82.210938 423.335938 82.035156 422.839844 81.878906 422.335938 C 81.726562 421.832031 81.601562 421.324219 81.496094 420.804688 C 81.394531 420.289062 81.316406 419.769531 81.265625 419.246094 C 81.210938 418.722656 81.1875 418.199219 81.1875 417.671875 L 81.265625 242.03125 C 81.265625 241.503906 81.292969 240.980469 81.34375 240.457031 C 81.398438 239.933594 81.476562 239.414062 81.578125 238.898438 C 81.683594 238.378906 81.808594 237.871094 81.964844 237.367188 C 82.117188 236.863281 82.292969 236.371094 82.496094 235.882812 C 82.699219 235.398438 82.921875 234.921875 83.171875 234.457031 C 83.417969 233.996094 83.691406 233.542969 83.984375 233.105469 C 84.277344 232.667969 84.589844 232.246094 84.921875 231.839844 C 85.257812 231.433594 85.609375 231.042969 85.980469 230.671875 C 86.355469 230.300781 86.742188 229.949219 87.152344 229.613281 C 87.558594 229.28125 87.980469 228.964844 88.417969 228.675781 C 88.855469 228.382812 89.304688 228.113281 89.769531 227.863281 C 90.234375 227.617188 90.707031 227.390625 91.195312 227.1875 C 91.679688 226.988281 92.175781 226.808594 92.679688 226.65625 C 93.183594 226.503906 93.691406 226.375 94.207031 226.273438 C 94.722656 226.171875 95.246094 226.09375 95.769531 226.039062 C 96.292969 225.988281 96.816406 225.960938 97.34375 225.960938 L 329.289062 226.050781 C 329.816406 226.050781 330.339844 226.074219 330.863281 226.128906 C 331.386719 226.179688 331.910156 226.257812 332.425781 226.359375 C 332.941406 226.460938 333.453125 226.589844 333.953125 226.742188 C 334.457031 226.898438 334.953125 227.074219 335.441406 227.277344 C 335.925781 227.476562 336.402344 227.703125 336.867188 227.949219 C 337.328125 228.199219 337.78125 228.46875 338.21875 228.761719 C 338.65625 229.054688 339.078125 229.367188 339.484375 229.703125 C 339.890625 230.035156 340.28125 230.390625 340.652344 230.761719 C 341.027344 231.136719 341.378906 231.523438 341.710938 231.929688 C 342.046875 232.339844 342.359375 232.761719 342.652344 233.199219 C 342.945312 233.636719 343.214844 234.089844 343.460938 234.550781 C 343.710938 235.015625 343.933594 235.492188 344.136719 235.980469 C 344.335938 236.464844 344.515625 236.960938 344.667969 237.464844 C 344.820312 237.96875 344.949219 238.476562 345.050781 238.996094 C 345.152344 239.511719 345.230469 240.03125 345.28125 240.554688 C 345.332031 241.078125 345.359375 241.605469 345.359375 242.128906 L 345.296875 417.769531 C 345.296875 418.296875 345.269531 418.824219 345.21875 419.347656 C 345.167969 419.871094 345.089844 420.390625 344.984375 420.90625 C 344.882812 421.421875 344.753906 421.929688 344.601562 422.433594 C 344.449219 422.9375 344.269531 423.433594 344.066406 423.917969 C 343.867188 424.40625 343.640625 424.878906 343.394531 425.34375 C 343.144531 425.808594 342.875 426.257812 342.582031 426.695312 C 342.289062 427.132812 341.976562 427.554688 341.640625 427.960938 C 341.308594 428.367188 340.953125 428.757812 340.582031 429.128906 C 340.210938 429.5 339.820312 429.855469 339.414062 430.1875 C 339.007812 430.523438 338.585938 430.835938 338.148438 431.128906 C 337.710938 431.421875 337.257812 431.691406 336.792969 431.9375 C 336.332031 432.1875 335.855469 432.410156 335.371094 432.613281 C 334.882812 432.816406 334.386719 432.992188 333.886719 433.144531 C 333.382812 433.296875 332.871094 433.425781 332.355469 433.527344 C 331.839844 433.632812 331.320312 433.710938 330.796875 433.761719 C 330.273438 433.8125 329.746094 433.839844 329.222656 433.839844 Z M 97.339844 230.390625 C 96.574219 230.390625 95.816406 230.464844 95.066406 230.613281 C 94.316406 230.765625 93.589844 230.984375 92.882812 231.277344 C 92.175781 231.570312 91.507812 231.929688 90.871094 232.355469 C 90.234375 232.777344 89.648438 233.261719 89.105469 233.800781 C 88.566406 234.34375 88.082031 234.929688 87.65625 235.566406 C 87.230469 236.199219 86.871094 236.871094 86.578125 237.578125 C 86.285156 238.28125 86.0625 239.011719 85.914062 239.761719 C 85.761719 240.507812 85.6875 241.265625 85.683594 242.03125 L 85.617188 417.671875 C 85.617188 418.4375 85.691406 419.191406 85.84375 419.941406 C 85.992188 420.691406 86.210938 421.421875 86.503906 422.128906 C 86.796875 422.832031 87.15625 423.503906 87.582031 424.140625 C 88.003906 424.777344 88.488281 425.363281 89.027344 425.90625 C 89.566406 426.445312 90.15625 426.929688 90.789062 427.355469 C 91.425781 427.78125 92.09375 428.140625 92.800781 428.433594 C 93.507812 428.726562 94.234375 428.949219 94.984375 429.101562 C 95.734375 429.25 96.492188 429.328125 97.253906 429.328125 L 329.203125 429.417969 C 329.964844 429.417969 330.722656 429.339844 331.472656 429.191406 C 332.222656 429.042969 332.953125 428.820312 333.660156 428.527344 C 334.363281 428.234375 335.035156 427.875 335.671875 427.449219 C 336.308594 427.023438 336.894531 426.542969 337.4375 426 C 337.976562 425.460938 338.460938 424.871094 338.886719 424.238281 C 339.3125 423.601562 339.671875 422.929688 339.964844 422.222656 C 340.257812 421.515625 340.480469 420.789062 340.628906 420.039062 C 340.777344 419.289062 340.855469 418.53125 340.855469 417.765625 L 340.921875 242.125 C 340.921875 241.363281 340.847656 240.605469 340.699219 239.855469 C 340.546875 239.109375 340.328125 238.382812 340.035156 237.675781 C 339.742188 236.96875 339.382812 236.300781 338.960938 235.664062 C 338.535156 235.03125 338.054688 234.441406 337.515625 233.902344 C 336.972656 233.363281 336.386719 232.878906 335.753906 232.453125 C 335.117188 232.03125 334.449219 231.671875 333.742188 231.378906 C 333.039062 231.085938 332.308594 230.863281 331.5625 230.710938 C 330.8125 230.5625 330.058594 230.484375 329.292969 230.484375 L 97.347656 230.398438 Z M 97.339844 230.390625 " fill-opacity="1" fill-rule="nonzero"/></g><g clip-path="url(#8c4f350fb3)"><path fill="#0a5c5d" d="M 728.839844 468.339844 L 728.839844 552.15625 C 728.839844 553.105469 728.75 554.046875 728.5625 554.980469 C 728.378906 555.910156 728.105469 556.816406 727.742188 557.695312 C 727.378906 558.570312 726.933594 559.40625 726.40625 560.195312 C 725.878906 560.988281 725.277344 561.71875 724.605469 562.390625 C 723.933594 563.0625 723.203125 563.664062 722.414062 564.191406 C 721.625 564.71875 720.792969 565.164062 719.914062 565.53125 C 719.035156 565.894531 718.132812 566.167969 717.199219 566.355469 C 716.269531 566.542969 715.328125 566.636719 714.378906 566.636719 L 580.9375 566.636719 L 563.042969 605.914062 C 563.042969 605.914062 563.082031 579.292969 563.09375 554.128906 C 563.007812 553.472656 562.960938 552.816406 562.964844 552.15625 L 562.964844 468.339844 C 562.960938 467.386719 563.054688 466.445312 563.238281 465.511719 C 563.421875 464.578125 563.699219 463.671875 564.0625 462.792969 C 564.425781 461.914062 564.871094 461.078125 565.398438 460.285156 C 565.925781 459.492188 566.527344 458.761719 567.199219 458.089844 C 567.871094 457.414062 568.605469 456.8125 569.394531 456.285156 C 570.1875 455.757812 571.023438 455.308594 571.902344 454.945312 C 572.78125 454.582031 573.6875 454.304688 574.621094 454.121094 C 575.554688 453.933594 576.496094 453.84375 577.449219 453.84375 L 714.378906 453.84375 C 715.328125 453.84375 716.269531 453.9375 717.203125 454.125 C 718.132812 454.3125 719.039062 454.585938 719.917969 454.953125 C 720.796875 455.316406 721.628906 455.761719 722.417969 456.292969 C 723.210938 456.820312 723.941406 457.421875 724.613281 458.09375 C 725.28125 458.769531 725.882812 459.5 726.410156 460.292969 C 726.9375 461.082031 727.382812 461.917969 727.746094 462.796875 C 728.109375 463.675781 728.382812 464.582031 728.566406 465.515625 C 728.75 466.445312 728.84375 467.386719 728.839844 468.339844 Z M 728.839844 468.339844 " fill-opacity="1" fill-rule="nonzero"/></g><path fill="#0f8b8d" d="M 556.425781 602.644531 L 556.425781 598.449219 C 556.425781 598.449219 556.464844 571.871094 556.476562 546.726562 C 556.390625 546.050781 556.347656 545.375 556.347656 544.695312 L 556.347656 460.878906 C 556.347656 459.867188 556.445312 458.867188 556.644531 457.875 C 556.839844 456.882812 557.132812 455.921875 557.519531 454.988281 C 557.910156 454.054688 558.382812 453.167969 558.945312 452.328125 C 559.507812 451.488281 560.144531 450.710938 560.859375 449.996094 C 561.574219 449.28125 562.351562 448.640625 563.191406 448.082031 C 564.03125 447.519531 564.917969 447.042969 565.851562 446.65625 C 566.785156 446.269531 567.75 445.976562 568.738281 445.78125 C 569.730469 445.582031 570.730469 445.484375 571.742188 445.480469 L 708.65625 445.480469 C 709.664062 445.484375 710.667969 445.582031 711.65625 445.78125 C 712.648438 445.980469 713.609375 446.273438 714.542969 446.660156 C 715.472656 447.046875 716.359375 447.519531 717.199219 448.082031 C 718.039062 448.644531 718.816406 449.28125 719.53125 449.996094 C 720.246094 450.710938 720.882812 451.484375 721.445312 452.324219 C 722.007812 453.164062 722.480469 454.050781 722.867188 454.984375 C 723.253906 455.917969 723.546875 456.878906 723.746094 457.871094 C 723.941406 458.859375 724.042969 459.859375 724.042969 460.871094 L 724.042969 544.6875 C 724.042969 545.699219 723.941406 546.699219 723.746094 547.6875 C 723.546875 548.679688 723.253906 549.640625 722.867188 550.574219 C 722.480469 551.507812 722.007812 552.390625 721.445312 553.230469 C 720.882812 554.070312 720.246094 554.847656 719.53125 555.5625 C 718.816406 556.277344 718.039062 556.914062 717.199219 557.476562 C 716.359375 558.039062 715.472656 558.511719 714.542969 558.898438 C 713.609375 559.285156 712.648438 559.578125 711.65625 559.777344 C 710.667969 559.976562 709.664062 560.074219 708.65625 560.074219 L 575.824219 560.074219 Z M 571.742188 447.300781 C 570.851562 447.300781 569.96875 447.390625 569.09375 447.566406 C 568.222656 447.738281 567.375 447.996094 566.550781 448.339844 C 565.726562 448.679688 564.945312 449.097656 564.207031 449.59375 C 563.464844 450.089844 562.78125 450.652344 562.148438 451.28125 C 561.519531 451.910156 560.957031 452.597656 560.460938 453.335938 C 559.964844 454.078125 559.546875 454.859375 559.207031 455.683594 C 558.867188 456.503906 558.609375 457.355469 558.433594 458.226562 C 558.257812 459.101562 558.171875 459.984375 558.167969 460.875 L 558.167969 544.691406 C 558.167969 545.308594 558.210938 545.925781 558.292969 546.539062 L 558.292969 546.660156 C 558.292969 565.800781 558.257812 585.78125 558.246094 594.253906 L 574.640625 558.265625 L 708.644531 558.265625 C 709.535156 558.261719 710.417969 558.175781 711.289062 558 C 712.164062 557.824219 713.011719 557.566406 713.835938 557.226562 C 714.660156 556.886719 715.441406 556.46875 716.179688 555.972656 C 716.921875 555.476562 717.605469 554.914062 718.238281 554.285156 C 718.867188 553.652344 719.429688 552.96875 719.925781 552.226562 C 720.417969 551.488281 720.835938 550.707031 721.179688 549.882812 C 721.519531 549.058594 721.777344 548.210938 721.953125 547.339844 C 722.128906 546.464844 722.214844 545.582031 722.214844 544.691406 L 722.214844 460.878906 C 722.214844 459.988281 722.128906 459.105469 721.953125 458.230469 C 721.777344 457.359375 721.519531 456.507812 721.179688 455.6875 C 720.835938 454.863281 720.417969 454.082031 719.925781 453.339844 C 719.429688 452.601562 718.867188 451.914062 718.238281 451.285156 C 717.605469 450.65625 716.921875 450.09375 716.179688 449.597656 C 715.441406 449.101562 714.660156 448.683594 713.835938 448.34375 C 713.011719 448 712.164062 447.742188 711.289062 447.570312 C 710.417969 447.394531 709.535156 447.304688 708.644531 447.304688 Z M 571.742188 447.300781 " fill-opacity="1" fill-rule="nonzero"/><path fill="#ffffff" d="M 628.765625 490.023438 L 594.824219 504.148438 L 594.820312 517.582031 L 628.75 533.148438 L 628.753906 519.007812 L 607.546875 511.933594 L 628.761719 502.039062 Z M 628.765625 490.023438 " fill-opacity="1" fill-rule="nonzero"/><path fill="#ffffff" d="M 663.054688 490.035156 L 696.984375 504.1875 L 696.980469 517.621094 L 663.039062 533.160156 L 663.042969 519.023438 L 684.257812 511.960938 L 663.050781 502.054688 Z M 663.054688 490.035156 " fill-opacity="1" fill-rule="nonzero"/><path fill="#ffffff" d="M 643.0625 545.882812 L 628.917969 545.875 L 648.746094 470.9375 L 662.886719 470.941406 Z M 643.0625 545.882812 " fill-opacity="1" fill-rule="nonzero"/><path fill="#18b7c9" d="M 84.023438 636.734375 L 84.023438 728.472656 C 84.023438 728.992188 84.050781 729.511719 84.101562 730.027344 C 84.152344 730.542969 84.226562 731.058594 84.328125 731.566406 C 84.429688 732.074219 84.554688 732.578125 84.707031 733.074219 C 84.855469 733.574219 85.03125 734.0625 85.230469 734.539062 C 85.429688 735.019531 85.652344 735.488281 85.894531 735.945312 C 86.140625 736.40625 86.40625 736.847656 86.695312 737.28125 C 86.984375 737.710938 87.292969 738.128906 87.621094 738.53125 C 87.949219 738.933594 88.300781 739.316406 88.667969 739.683594 C 89.035156 740.050781 89.417969 740.398438 89.820312 740.726562 C 90.21875 741.058594 90.636719 741.367188 91.066406 741.652344 C 91.5 741.941406 91.945312 742.210938 92.402344 742.453125 C 92.859375 742.699219 93.328125 742.921875 93.808594 743.117188 C 94.289062 743.316406 94.777344 743.492188 95.273438 743.644531 C 95.769531 743.792969 96.273438 743.917969 96.78125 744.019531 C 97.292969 744.121094 97.804688 744.199219 98.320312 744.25 C 98.839844 744.300781 99.355469 744.324219 99.875 744.324219 L 245.914062 744.324219 L 265.503906 787.324219 C 265.503906 787.324219 265.457031 758.1875 265.445312 730.640625 C 265.542969 729.925781 265.589844 729.203125 265.589844 728.480469 L 265.589844 636.734375 C 265.589844 636.214844 265.566406 635.695312 265.515625 635.179688 C 265.464844 634.664062 265.386719 634.152344 265.285156 633.640625 C 265.183594 633.132812 265.058594 632.628906 264.910156 632.132812 C 264.757812 631.636719 264.582031 631.148438 264.386719 630.667969 C 264.1875 630.1875 263.964844 629.71875 263.71875 629.261719 C 263.476562 628.804688 263.210938 628.359375 262.921875 627.929688 C 262.632812 627.496094 262.324219 627.082031 261.996094 626.679688 C 261.664062 626.277344 261.316406 625.894531 260.949219 625.527344 C 260.582031 625.160156 260.199219 624.8125 259.796875 624.480469 C 259.398438 624.152344 258.980469 623.84375 258.550781 623.554688 C 258.117188 623.265625 257.671875 623 257.214844 622.753906 C 256.757812 622.511719 256.289062 622.289062 255.808594 622.089844 C 255.328125 621.890625 254.839844 621.71875 254.34375 621.566406 C 253.847656 621.414062 253.34375 621.289062 252.835938 621.1875 C 252.328125 621.085938 251.8125 621.011719 251.296875 620.960938 C 250.78125 620.910156 250.261719 620.882812 249.742188 620.882812 L 99.875 620.882812 C 99.355469 620.882812 98.839844 620.910156 98.320312 620.960938 C 97.804688 621.011719 97.292969 621.085938 96.78125 621.1875 C 96.273438 621.289062 95.769531 621.414062 95.273438 621.566406 C 94.777344 621.714844 94.289062 621.890625 93.808594 622.089844 C 93.328125 622.289062 92.859375 622.507812 92.402344 622.753906 C 91.945312 623 91.5 623.265625 91.066406 623.554688 C 90.636719 623.84375 90.21875 624.152344 89.820312 624.480469 C 89.417969 624.808594 89.035156 625.15625 88.667969 625.523438 C 88.300781 625.890625 87.949219 626.277344 87.621094 626.679688 C 87.292969 627.078125 86.984375 627.496094 86.695312 627.925781 C 86.40625 628.359375 86.140625 628.804688 85.894531 629.261719 C 85.652344 629.71875 85.429688 630.1875 85.230469 630.667969 C 85.03125 631.148438 84.855469 631.636719 84.707031 632.132812 C 84.554688 632.628906 84.429688 633.132812 84.328125 633.640625 C 84.226562 634.152344 84.152344 634.664062 84.101562 635.179688 C 84.050781 635.695312 84.023438 636.214844 84.023438 636.734375 Z M 84.023438 636.734375 " fill-opacity="1" fill-rule="nonzero"/><path fill="#0f8b8d" d="M 272.746094 783.742188 L 251.515625 737.15625 L 106.117188 737.15625 C 105.566406 737.15625 105.015625 737.128906 104.46875 737.074219 C 103.921875 737.019531 103.375 736.9375 102.835938 736.828125 C 102.292969 736.71875 101.761719 736.582031 101.234375 736.421875 C 100.707031 736.261719 100.1875 736.074219 99.679688 735.863281 C 99.171875 735.652344 98.671875 735.417969 98.1875 735.15625 C 97.703125 734.894531 97.230469 734.613281 96.773438 734.304688 C 96.3125 734 95.871094 733.667969 95.445312 733.320312 C 95.019531 732.96875 94.613281 732.597656 94.222656 732.210938 C 93.835938 731.820312 93.464844 731.410156 93.113281 730.984375 C 92.765625 730.558594 92.4375 730.117188 92.132812 729.65625 C 91.824219 729.199219 91.542969 728.726562 91.28125 728.242188 C 91.023438 727.753906 90.789062 727.257812 90.578125 726.75 C 90.367188 726.238281 90.179688 725.71875 90.019531 725.191406 C 89.859375 724.664062 89.726562 724.132812 89.617188 723.589844 C 89.511719 723.050781 89.429688 722.507812 89.375 721.957031 C 89.320312 721.410156 89.292969 720.859375 89.292969 720.308594 L 89.292969 628.566406 C 89.292969 628.015625 89.320312 627.464844 89.375 626.917969 C 89.429688 626.367188 89.511719 625.824219 89.621094 625.28125 C 89.726562 624.742188 89.863281 624.207031 90.023438 623.679688 C 90.183594 623.152344 90.367188 622.632812 90.578125 622.125 C 90.792969 621.617188 91.027344 621.117188 91.289062 620.632812 C 91.546875 620.144531 91.832031 619.671875 92.136719 619.214844 C 92.445312 618.753906 92.773438 618.3125 93.121094 617.886719 C 93.472656 617.460938 93.84375 617.050781 94.230469 616.664062 C 94.621094 616.273438 95.03125 615.902344 95.457031 615.550781 C 95.882812 615.203125 96.324219 614.875 96.785156 614.566406 C 97.242188 614.261719 97.714844 613.976562 98.199219 613.71875 C 98.6875 613.457031 99.183594 613.222656 99.695312 613.011719 C 100.203125 612.796875 100.722656 612.613281 101.25 612.453125 C 101.777344 612.292969 102.3125 612.15625 102.851562 612.050781 C 103.394531 611.941406 103.9375 611.859375 104.488281 611.804688 C 105.035156 611.75 105.585938 611.722656 106.136719 611.722656 L 256 611.722656 C 256.550781 611.722656 257.101562 611.75 257.648438 611.804688 C 258.199219 611.859375 258.742188 611.941406 259.28125 612.050781 C 259.824219 612.160156 260.355469 612.292969 260.886719 612.453125 C 261.414062 612.613281 261.929688 612.800781 262.441406 613.011719 C 262.949219 613.222656 263.445312 613.460938 263.933594 613.71875 C 264.417969 613.980469 264.890625 614.265625 265.347656 614.570312 C 265.808594 614.878906 266.25 615.207031 266.675781 615.554688 C 267.101562 615.90625 267.507812 616.273438 267.898438 616.664062 C 268.289062 617.054688 268.660156 617.464844 269.007812 617.890625 C 269.359375 618.316406 269.6875 618.757812 269.992188 619.214844 C 270.300781 619.675781 270.582031 620.148438 270.84375 620.632812 C 271.101562 621.121094 271.339844 621.617188 271.550781 622.125 C 271.761719 622.636719 271.945312 623.152344 272.105469 623.683594 C 272.265625 624.210938 272.402344 624.742188 272.507812 625.285156 C 272.617188 625.824219 272.699219 626.371094 272.753906 626.917969 C 272.808594 627.464844 272.835938 628.015625 272.835938 628.566406 L 272.835938 720.308594 C 272.835938 721.050781 272.789062 721.792969 272.691406 722.53125 C 272.691406 750.058594 272.75 779.144531 272.75 779.144531 Z M 106.117188 613.710938 C 105.140625 613.710938 104.175781 613.804688 103.21875 613.996094 C 102.265625 614.1875 101.335938 614.472656 100.433594 614.84375 C 99.535156 615.21875 98.675781 615.675781 97.867188 616.21875 C 97.054688 616.761719 96.304688 617.375 95.617188 618.066406 C 94.925781 618.753906 94.308594 619.507812 93.769531 620.316406 C 93.226562 621.128906 92.769531 621.984375 92.394531 622.882812 C 92.019531 623.785156 91.738281 624.714844 91.546875 625.671875 C 91.355469 626.625 91.261719 627.59375 91.257812 628.566406 L 91.257812 720.308594 C 91.261719 721.285156 91.355469 722.25 91.546875 723.207031 C 91.738281 724.164062 92.019531 725.089844 92.394531 725.992188 C 92.769531 726.894531 93.226562 727.75 93.769531 728.558594 C 94.308594 729.371094 94.925781 730.121094 95.617188 730.808594 C 96.304688 731.5 97.054688 732.117188 97.867188 732.65625 C 98.675781 733.199219 99.535156 733.65625 100.433594 734.03125 C 101.335938 734.40625 102.265625 734.6875 103.21875 734.878906 C 104.175781 735.070312 105.140625 735.164062 106.117188 735.167969 L 252.792969 735.167969 L 270.742188 774.558594 C 270.742188 765.28125 270.703125 743.417969 270.691406 722.46875 L 270.691406 722.335938 C 270.78125 721.664062 270.824219 720.988281 270.824219 720.3125 L 270.824219 628.566406 C 270.824219 627.59375 270.730469 626.625 270.539062 625.671875 C 270.347656 624.714844 270.0625 623.785156 269.691406 622.882812 C 269.316406 621.984375 268.859375 621.128906 268.316406 620.316406 C 267.773438 619.507812 267.160156 618.753906 266.46875 618.066406 C 265.78125 617.375 265.027344 616.761719 264.21875 616.21875 C 263.40625 615.675781 262.550781 615.21875 261.652344 614.84375 C 260.75 614.472656 259.820312 614.1875 258.863281 613.996094 C 257.910156 613.804688 256.941406 613.710938 255.96875 613.710938 Z M 106.117188 613.710938 " fill-opacity="1" fill-rule="nonzero"/><path fill="#ffffff" d="M 214.308594 670.648438 L 208.566406 669.476562 C 208.234375 669.410156 207.914062 669.300781 207.609375 669.152344 C 207.304688 669.003906 207.019531 668.824219 206.757812 668.605469 C 206.496094 668.386719 206.265625 668.144531 206.0625 667.867188 C 205.863281 667.59375 205.699219 667.300781 205.570312 666.984375 C 205.441406 666.667969 205.355469 666.34375 205.304688 666.007812 C 205.257812 665.671875 205.25 665.332031 205.285156 664.996094 C 205.320312 664.65625 205.398438 664.328125 205.511719 664.007812 C 205.628906 663.691406 205.78125 663.390625 205.972656 663.105469 L 209.269531 658.261719 C 209.539062 657.863281 209.734375 657.433594 209.851562 656.96875 C 209.972656 656.507812 210.011719 656.035156 209.96875 655.558594 C 209.925781 655.082031 209.800781 654.625 209.597656 654.191406 C 209.398438 653.753906 209.128906 653.367188 208.792969 653.027344 L 201.71875 645.859375 C 201.382812 645.519531 201 645.246094 200.566406 645.035156 C 200.136719 644.828125 199.679688 644.699219 199.203125 644.652344 C 198.726562 644.601562 198.257812 644.632812 197.789062 644.746094 C 197.324219 644.859375 196.890625 645.050781 196.492188 645.3125 L 191.589844 648.535156 C 191.308594 648.726562 191.003906 648.878906 190.679688 648.992188 C 190.359375 649.109375 190.027344 649.179688 189.6875 649.214844 C 189.34375 649.246094 189.007812 649.238281 188.667969 649.1875 C 188.328125 649.136719 188.003906 649.042969 187.6875 648.910156 C 187.371094 648.777344 187.078125 648.609375 186.804688 648.402344 C 186.527344 648.199219 186.285156 647.960938 186.070312 647.695312 C 185.855469 647.429688 185.675781 647.140625 185.53125 646.828125 C 185.386719 646.519531 185.285156 646.195312 185.222656 645.859375 L 184.121094 640.101562 C 184.03125 639.632812 183.867188 639.1875 183.621094 638.777344 C 183.378906 638.363281 183.074219 638.003906 182.703125 637.695312 C 182.335938 637.390625 181.925781 637.152344 181.476562 636.988281 C 181.023438 636.824219 180.558594 636.742188 180.082031 636.738281 L 170.019531 636.675781 C 169.539062 636.671875 169.074219 636.75 168.621094 636.910156 C 168.171875 637.066406 167.757812 637.296875 167.386719 637.601562 C 167.015625 637.902344 166.703125 638.257812 166.457031 638.667969 C 166.207031 639.078125 166.035156 639.515625 165.9375 639.988281 L 164.789062 645.746094 C 164.71875 646.082031 164.613281 646.402344 164.464844 646.707031 C 164.316406 647.011719 164.132812 647.296875 163.917969 647.558594 C 163.699219 647.820312 163.453125 648.050781 163.179688 648.25 C 162.90625 648.453125 162.609375 648.617188 162.296875 648.746094 C 161.980469 648.875 161.65625 648.960938 161.320312 649.011719 C 160.980469 649.058594 160.644531 649.066406 160.304688 649.03125 C 159.96875 648.996094 159.640625 648.917969 159.320312 648.804688 C 159 648.6875 158.699219 648.535156 158.417969 648.34375 L 153.574219 645.046875 C 153.175781 644.777344 152.746094 644.582031 152.28125 644.464844 C 151.816406 644.34375 151.347656 644.304688 150.871094 644.347656 C 150.390625 644.390625 149.9375 644.515625 149.5 644.71875 C 149.066406 644.917969 148.679688 645.1875 148.335938 645.523438 L 141.171875 652.597656 C 140.828125 652.933594 140.554688 653.316406 140.347656 653.75 C 140.140625 654.179688 140.011719 654.636719 139.960938 655.113281 C 139.914062 655.589844 139.945312 656.058594 140.058594 656.527344 C 140.171875 656.992188 140.359375 657.421875 140.625 657.824219 L 143.859375 662.710938 C 144.046875 662.996094 144.199219 663.300781 144.316406 663.625 C 144.429688 663.945312 144.503906 664.277344 144.539062 664.617188 C 144.570312 664.957031 144.5625 665.296875 144.507812 665.636719 C 144.457031 665.976562 144.367188 666.300781 144.234375 666.617188 C 144.101562 666.933594 143.929688 667.226562 143.726562 667.5 C 143.519531 667.773438 143.285156 668.019531 143.019531 668.234375 C 142.753906 668.449219 142.464844 668.628906 142.152344 668.773438 C 141.84375 668.917969 141.519531 669.019531 141.183594 669.082031 L 135.425781 670.183594 C 134.953125 670.273438 134.511719 670.4375 134.097656 670.683594 C 133.6875 670.925781 133.324219 671.230469 133.019531 671.601562 C 132.710938 671.96875 132.476562 672.378906 132.3125 672.828125 C 132.148438 673.277344 132.0625 673.742188 132.0625 674.222656 L 131.996094 684.285156 C 131.996094 684.761719 132.074219 685.230469 132.230469 685.679688 C 132.390625 686.132812 132.621094 686.546875 132.921875 686.917969 C 133.226562 687.289062 133.582031 687.601562 133.992188 687.847656 C 134.402344 688.097656 134.839844 688.269531 135.308594 688.363281 L 141.050781 689.535156 C 141.382812 689.605469 141.703125 689.710938 142.011719 689.859375 C 142.316406 690.007812 142.601562 690.191406 142.859375 690.40625 C 143.121094 690.625 143.355469 690.871094 143.554688 691.144531 C 143.753906 691.417969 143.921875 691.714844 144.046875 692.027344 C 144.175781 692.34375 144.265625 692.667969 144.3125 693.003906 C 144.359375 693.34375 144.367188 693.679688 144.332031 694.015625 C 144.296875 694.355469 144.222656 694.683594 144.105469 695.003906 C 143.988281 695.324219 143.835938 695.625 143.648438 695.90625 L 140.351562 700.75 C 140.082031 701.148438 139.886719 701.578125 139.765625 702.042969 C 139.644531 702.507812 139.609375 702.976562 139.652344 703.453125 C 139.695312 703.933594 139.816406 704.386719 140.019531 704.824219 C 140.222656 705.257812 140.492188 705.644531 140.828125 705.988281 L 147.898438 713.152344 C 148.234375 713.496094 148.621094 713.769531 149.050781 713.976562 C 149.484375 714.183594 149.9375 714.3125 150.414062 714.363281 C 150.890625 714.410156 151.363281 714.378906 151.828125 714.265625 C 152.292969 714.152344 152.726562 713.964844 153.125 713.699219 L 158.015625 710.464844 C 158.300781 710.277344 158.605469 710.125 158.925781 710.007812 C 159.25 709.894531 159.582031 709.820312 159.921875 709.785156 C 160.261719 709.753906 160.601562 709.761719 160.941406 709.816406 C 161.277344 709.867188 161.605469 709.957031 161.921875 710.089844 C 162.234375 710.222656 162.53125 710.390625 162.804688 710.597656 C 163.078125 710.804688 163.324219 711.039062 163.539062 711.304688 C 163.753906 711.570312 163.933594 711.859375 164.074219 712.171875 C 164.21875 712.480469 164.324219 712.804688 164.386719 713.140625 L 165.484375 718.898438 C 165.574219 719.371094 165.742188 719.8125 165.984375 720.226562 C 166.226562 720.636719 166.535156 720.996094 166.902344 721.304688 C 167.273438 721.613281 167.679688 721.847656 168.132812 722.011719 C 168.582031 722.175781 169.046875 722.261719 169.527344 722.261719 L 179.585938 722.328125 C 180.066406 722.328125 180.53125 722.246094 180.980469 722.085938 C 181.433594 721.925781 181.84375 721.695312 182.214844 721.394531 C 182.582031 721.089844 182.890625 720.734375 183.140625 720.324219 C 183.386719 719.914062 183.558594 719.476562 183.652344 719.007812 L 184.824219 713.265625 C 184.890625 712.933594 185 712.613281 185.148438 712.304688 C 185.292969 712 185.476562 711.714844 185.695312 711.453125 C 185.910156 711.191406 186.15625 710.960938 186.433594 710.761719 C 186.707031 710.558594 187 710.394531 187.316406 710.269531 C 187.628906 710.140625 187.957031 710.050781 188.292969 710.003906 C 188.628906 709.953125 188.964844 709.949219 189.304688 709.984375 C 189.644531 710.019531 189.972656 710.09375 190.289062 710.210938 C 190.609375 710.324219 190.910156 710.480469 191.191406 710.667969 L 196.039062 713.964844 C 196.433594 714.234375 196.867188 714.429688 197.328125 714.550781 C 197.792969 714.667969 198.265625 714.707031 198.742188 714.664062 C 199.21875 714.621094 199.675781 714.5 200.109375 714.296875 C 200.542969 714.09375 200.933594 713.824219 201.273438 713.488281 L 208.441406 706.417969 C 208.78125 706.082031 209.054688 705.695312 209.261719 705.265625 C 209.472656 704.832031 209.597656 704.378906 209.648438 703.902344 C 209.699219 703.425781 209.667969 702.953125 209.554688 702.488281 C 209.4375 702.023438 209.25 701.589844 208.984375 701.1875 L 205.753906 696.300781 C 205.5625 696.015625 205.410156 695.710938 205.296875 695.390625 C 205.179688 695.066406 205.105469 694.734375 205.074219 694.394531 C 205.042969 694.054688 205.050781 693.714844 205.101562 693.375 C 205.152344 693.039062 205.246094 692.710938 205.378906 692.394531 C 205.511719 692.078125 205.679688 691.785156 205.886719 691.511719 C 206.089844 691.238281 206.328125 690.992188 206.59375 690.777344 C 206.859375 690.5625 207.148438 690.382812 207.457031 690.242188 C 207.769531 690.097656 208.09375 689.992188 208.429688 689.929688 L 214.1875 688.832031 C 214.65625 688.742188 215.097656 688.574219 215.511719 688.332031 C 215.925781 688.085938 216.285156 687.78125 216.59375 687.414062 C 216.898438 687.042969 217.132812 686.636719 217.300781 686.183594 C 217.464844 685.734375 217.546875 685.269531 217.550781 684.789062 L 217.613281 674.730469 C 217.617188 674.25 217.539062 673.785156 217.378906 673.332031 C 217.222656 672.882812 216.992188 672.46875 216.691406 672.097656 C 216.390625 671.726562 216.035156 671.414062 215.625 671.167969 C 215.21875 670.917969 214.777344 670.746094 214.308594 670.648438 Z M 174.6875 698.699219 C 174.054688 698.695312 173.429688 698.664062 172.800781 698.597656 C 172.175781 698.53125 171.554688 698.433594 170.9375 698.308594 C 170.320312 698.179688 169.710938 698.023438 169.109375 697.839844 C 168.507812 697.652344 167.917969 697.4375 167.339844 697.191406 C 166.757812 696.945312 166.191406 696.675781 165.636719 696.375 C 165.085938 696.074219 164.546875 695.746094 164.023438 695.394531 C 163.503906 695.042969 163 694.664062 162.515625 694.261719 C 162.03125 693.859375 161.570312 693.433594 161.125 692.984375 C 160.683594 692.539062 160.265625 692.070312 159.867188 691.578125 C 159.472656 691.089844 159.101562 690.582031 158.753906 690.058594 C 158.40625 689.53125 158.085938 688.992188 157.792969 688.433594 C 157.5 687.875 157.234375 687.304688 156.996094 686.722656 C 156.761719 686.140625 156.550781 685.546875 156.375 684.941406 C 156.195312 684.339844 156.046875 683.726562 155.925781 683.109375 C 155.808594 682.492188 155.71875 681.867188 155.660156 681.242188 C 155.601562 680.613281 155.574219 679.988281 155.578125 679.355469 C 155.582031 678.726562 155.617188 678.097656 155.683594 677.472656 C 155.75 676.847656 155.847656 676.226562 155.972656 675.609375 C 156.097656 674.992188 156.253906 674.382812 156.441406 673.78125 C 156.628906 673.179688 156.84375 672.589844 157.089844 672.007812 C 157.332031 671.429688 157.605469 670.863281 157.90625 670.308594 C 158.207031 669.753906 158.53125 669.21875 158.886719 668.695312 C 159.238281 668.175781 159.617188 667.671875 160.019531 667.1875 C 160.421875 666.703125 160.847656 666.238281 161.292969 665.796875 C 161.742188 665.355469 162.210938 664.933594 162.699219 664.539062 C 163.1875 664.140625 163.695312 663.769531 164.222656 663.425781 C 164.746094 663.078125 165.289062 662.757812 165.847656 662.464844 C 166.402344 662.171875 166.972656 661.90625 167.554688 661.667969 C 168.140625 661.429688 168.734375 661.222656 169.335938 661.042969 C 169.941406 660.863281 170.550781 660.714844 171.167969 660.59375 C 171.789062 660.476562 172.410156 660.386719 173.039062 660.332031 C 173.664062 660.273438 174.292969 660.246094 174.921875 660.25 C 175.550781 660.253906 176.179688 660.289062 176.804688 660.351562 C 177.433594 660.417969 178.054688 660.515625 178.671875 660.640625 C 179.289062 660.769531 179.898438 660.925781 180.5 661.109375 C 181.101562 661.296875 181.691406 661.511719 182.269531 661.757812 C 182.851562 662 183.417969 662.273438 183.972656 662.574219 C 184.523438 662.875 185.0625 663.199219 185.582031 663.554688 C 186.105469 663.90625 186.609375 664.285156 187.09375 664.6875 C 187.578125 665.089844 188.039062 665.515625 188.484375 665.960938 C 188.925781 666.410156 189.34375 666.878906 189.742188 667.367188 C 190.136719 667.855469 190.507812 668.363281 190.855469 668.890625 C 191.203125 669.414062 191.523438 669.957031 191.816406 670.515625 C 192.109375 671.070312 192.375 671.640625 192.613281 672.222656 C 192.851562 672.808594 193.058594 673.402344 193.238281 674.003906 C 193.417969 674.609375 193.566406 675.21875 193.683594 675.835938 C 193.804688 676.457031 193.894531 677.078125 193.949219 677.707031 C 194.007812 678.332031 194.035156 678.960938 194.03125 679.589844 C 194.027344 680.21875 193.992188 680.847656 193.929688 681.472656 C 193.863281 682.101562 193.765625 682.722656 193.640625 683.339844 C 193.511719 683.957031 193.355469 684.566406 193.171875 685.167969 C 192.984375 685.769531 192.769531 686.359375 192.523438 686.941406 C 192.28125 687.519531 192.007812 688.085938 191.707031 688.640625 C 191.40625 689.195312 191.078125 689.730469 190.726562 690.253906 C 190.375 690.773438 189.996094 691.277344 189.59375 691.761719 C 189.191406 692.246094 188.765625 692.710938 188.316406 693.152344 C 187.871094 693.59375 187.402344 694.015625 186.910156 694.410156 C 186.421875 694.808594 185.914062 695.179688 185.390625 695.527344 C 184.863281 695.875 184.320312 696.191406 183.765625 696.488281 C 183.207031 696.78125 182.636719 697.046875 182.054688 697.28125 C 181.46875 697.519531 180.875 697.730469 180.273438 697.90625 C 179.667969 698.085938 179.058594 698.234375 178.441406 698.355469 C 177.820312 698.472656 177.199219 698.5625 176.570312 698.621094 C 175.945312 698.679688 175.316406 698.703125 174.6875 698.699219 Z M 174.6875 698.699219 " fill-opacity="1" fill-rule="nonzero"/></svg>