<svg xmlns="http://www.w3.org/2000/svg" xmlns:xlink="http://www.w3.org/1999/xlink" width="1080" zoomAndPan="magnify" viewBox="0 0 810 1012.49997" height="1350" preserveAspectRatio="xMidYMid meet" version="1.0"><defs><clipPath id="02c0e2fdc0"><path d="M 90 264.058594 L 728 264.058594 L 728 754 L 90 754 Z M 90 264.058594 " clip-rule="nonzero"/></clipPath><clipPath id="7a419d4e36"><path d="M 89.769531 264.058594 L 729 264.058594 L 729 754.316406 L 89.769531 754.316406 Z M 89.769531 264.058594 " clip-rule="nonzero"/></clipPath><clipPath id="783438bf1d"><path d="M 89.769531 289 L 729 289 L 729 292 L 89.769531 292 Z M 89.769531 289 " clip-rule="nonzero"/></clipPath></defs><g clip-path="url(#02c0e2fdc0)"><path fill="#ffffff" d="M 114.503906 264.976562 L 704.101562 264.976562 C 717.25 264.976562 727.921875 275.648438 727.921875 288.796875 L 727.921875 753.605469 L 90.683594 753.605469 L 90.683594 288.796875 C 90.683594 275.648438 101.359375 264.976562 114.503906 264.976562 Z M 114.503906 264.976562 " fill-opacity="1" fill-rule="nonzero"/></g><g clip-path="url(#7a419d4e36)"><path fill="#0a5c5d" d="M 727.921875 754.523438 L 90.683594 754.523438 C 90.179688 754.523438 89.769531 754.113281 89.769531 753.605469 L 89.769531 288.796875 C 89.769531 275.15625 100.867188 264.058594 114.503906 264.058594 L 704.101562 264.058594 C 717.742188 264.058594 728.839844 275.15625 728.839844 288.796875 L 728.839844 753.605469 C 728.839844 754.113281 728.429688 754.523438 727.921875 754.523438 Z M 91.601562 752.691406 L 727.007812 752.691406 L 727.007812 288.796875 C 727.007812 276.167969 716.730469 265.890625 704.101562 265.890625 L 114.503906 265.890625 C 101.875 265.890625 91.601562 276.167969 91.601562 288.796875 Z M 91.601562 752.691406 " fill-opacity="1" fill-rule="nonzero"/></g><g clip-path="url(#783438bf1d)"><path fill="#0a5c5d" d="M 727.921875 291.199219 L 90.683594 291.199219 C 90.179688 291.199219 89.769531 290.789062 89.769531 290.28125 C 89.769531 289.777344 90.179688 289.367188 90.683594 289.367188 L 727.921875 289.367188 C 728.429688 289.367188 728.839844 289.777344 728.839844 290.28125 C 728.839844 290.789062 728.429688 291.199219 727.921875 291.199219 Z M 727.921875 291.199219 " fill-opacity="1" fill-rule="nonzero"/></g><path fill="#0a5c5d" d="M 129.394531 277.53125 C 129.394531 277.878906 129.359375 278.222656 129.292969 278.5625 C 129.222656 278.902344 129.125 279.234375 128.992188 279.554688 C 128.859375 279.875 128.695312 280.179688 128.503906 280.464844 C 128.308594 280.753906 128.089844 281.023438 127.847656 281.265625 C 127.601562 281.511719 127.332031 281.730469 127.046875 281.925781 C 126.757812 282.117188 126.453125 282.28125 126.132812 282.414062 C 125.8125 282.546875 125.480469 282.644531 125.140625 282.714844 C 124.800781 282.78125 124.457031 282.816406 124.109375 282.816406 C 123.761719 282.816406 123.417969 282.78125 123.078125 282.714844 C 122.738281 282.644531 122.40625 282.546875 122.085938 282.414062 C 121.765625 282.28125 121.460938 282.117188 121.175781 281.925781 C 120.886719 281.730469 120.617188 281.511719 120.375 281.265625 C 120.128906 281.023438 119.910156 280.753906 119.714844 280.464844 C 119.523438 280.179688 119.359375 279.875 119.226562 279.554688 C 119.09375 279.234375 118.996094 278.902344 118.925781 278.5625 C 118.859375 278.222656 118.824219 277.878906 118.824219 277.53125 C 118.824219 277.183594 118.859375 276.839844 118.925781 276.5 C 118.996094 276.160156 119.09375 275.828125 119.226562 275.507812 C 119.359375 275.1875 119.523438 274.882812 119.714844 274.59375 C 119.910156 274.308594 120.128906 274.039062 120.375 273.792969 C 120.617188 273.550781 120.886719 273.332031 121.175781 273.136719 C 121.460938 272.945312 121.765625 272.78125 122.085938 272.648438 C 122.40625 272.515625 122.738281 272.417969 123.078125 272.347656 C 123.417969 272.28125 123.761719 272.246094 124.109375 272.246094 C 124.457031 272.246094 124.800781 272.28125 125.140625 272.347656 C 125.480469 272.417969 125.8125 272.515625 126.132812 272.648438 C 126.453125 272.78125 126.757812 272.945312 127.046875 273.136719 C 127.332031 273.332031 127.601562 273.550781 127.847656 273.792969 C 128.089844 274.039062 128.308594 274.308594 128.503906 274.59375 C 128.695312 274.882812 128.859375 275.1875 128.992188 275.507812 C 129.125 275.828125 129.222656 276.160156 129.292969 276.5 C 129.359375 276.839844 129.394531 277.183594 129.394531 277.53125 Z M 129.394531 277.53125 " fill-opacity="1" fill-rule="nonzero"/><path fill="#0a5c5d" d="M 124.109375 283.730469 C 120.691406 283.730469 117.910156 280.949219 117.910156 277.53125 C 117.910156 274.113281 120.691406 271.332031 124.109375 271.332031 C 127.527344 271.332031 130.308594 274.113281 130.308594 277.53125 C 130.308594 280.949219 127.527344 283.730469 124.109375 283.730469 Z M 124.109375 273.164062 C 121.699219 273.164062 119.742188 275.121094 119.742188 277.53125 C 119.742188 279.941406 121.699219 281.898438 124.109375 281.898438 C 126.519531 281.898438 128.476562 279.941406 128.476562 277.53125 C 128.476562 275.121094 126.519531 273.164062 124.109375 273.164062 Z M 124.109375 273.164062 " fill-opacity="1" fill-rule="nonzero"/><path fill="#0a5c5d" d="M 149.347656 277.53125 C 149.347656 277.878906 149.3125 278.222656 149.246094 278.5625 C 149.175781 278.902344 149.078125 279.234375 148.945312 279.554688 C 148.8125 279.875 148.648438 280.179688 148.457031 280.464844 C 148.261719 280.753906 148.042969 281.023438 147.800781 281.265625 C 147.554688 281.511719 147.285156 281.730469 147 281.925781 C 146.710938 282.117188 146.40625 282.28125 146.085938 282.414062 C 145.765625 282.546875 145.433594 282.644531 145.09375 282.714844 C 144.753906 282.78125 144.410156 282.816406 144.0625 282.816406 C 143.714844 282.816406 143.371094 282.78125 143.03125 282.714844 C 142.691406 282.644531 142.359375 282.546875 142.039062 282.414062 C 141.71875 282.28125 141.414062 282.117188 141.128906 281.925781 C 140.839844 281.730469 140.570312 281.511719 140.328125 281.265625 C 140.082031 281.023438 139.863281 280.753906 139.667969 280.464844 C 139.476562 280.179688 139.3125 279.875 139.179688 279.554688 C 139.046875 279.234375 138.949219 278.902344 138.878906 278.5625 C 138.8125 278.222656 138.777344 277.878906 138.777344 277.53125 C 138.777344 277.183594 138.8125 276.839844 138.878906 276.5 C 138.949219 276.160156 139.046875 275.828125 139.179688 275.507812 C 139.3125 275.1875 139.476562 274.882812 139.667969 274.59375 C 139.863281 274.308594 140.082031 274.039062 140.328125 273.792969 C 140.570312 273.550781 140.839844 273.332031 141.128906 273.136719 C 141.414062 272.945312 141.71875 272.78125 142.039062 272.648438 C 142.359375 272.515625 142.691406 272.417969 143.03125 272.347656 C 143.371094 272.28125 143.714844 272.246094 144.0625 272.246094 C 144.410156 272.246094 144.753906 272.28125 145.09375 272.347656 C 145.433594 272.417969 145.765625 272.515625 146.085938 272.648438 C 146.40625 272.78125 146.710938 272.945312 147 273.136719 C 147.285156 273.332031 147.554688 273.550781 147.800781 273.792969 C 148.042969 274.039062 148.261719 274.308594 148.457031 274.59375 C 148.648438 274.882812 148.8125 275.1875 148.945312 275.507812 C 149.078125 275.828125 149.175781 276.160156 149.246094 276.5 C 149.3125 276.839844 149.347656 277.183594 149.347656 277.53125 Z M 149.347656 277.53125 " fill-opacity="1" fill-rule="nonzero"/><path fill="#0a5c5d" d="M 144.0625 283.730469 C 140.644531 283.730469 137.863281 280.949219 137.863281 277.53125 C 137.863281 274.113281 140.644531 271.332031 144.0625 271.332031 C 147.480469 271.332031 150.261719 274.113281 150.261719 277.53125 C 150.261719 280.949219 147.480469 283.730469 144.0625 283.730469 Z M 144.0625 273.164062 C 141.652344 273.164062 139.695312 275.121094 139.695312 277.53125 C 139.695312 279.941406 141.652344 281.898438 144.0625 281.898438 C 146.472656 281.898438 148.429688 279.941406 148.429688 277.53125 C 148.429688 275.121094 146.472656 273.164062 144.0625 273.164062 Z M 144.0625 273.164062 " fill-opacity="1" fill-rule="nonzero"/><path fill="#0a5c5d" d="M 169.300781 277.53125 C 169.300781 277.878906 169.265625 278.222656 169.199219 278.5625 C 169.128906 278.902344 169.03125 279.234375 168.898438 279.554688 C 168.765625 279.875 168.601562 280.179688 168.410156 280.464844 C 168.214844 280.753906 167.996094 281.023438 167.753906 281.265625 C 167.507812 281.511719 167.238281 281.730469 166.953125 281.925781 C 166.664062 282.117188 166.359375 282.28125 166.039062 282.414062 C 165.71875 282.546875 165.386719 282.644531 165.046875 282.714844 C 164.707031 282.78125 164.363281 282.816406 164.015625 282.816406 C 163.667969 282.816406 163.324219 282.78125 162.984375 282.714844 C 162.644531 282.644531 162.3125 282.546875 161.992188 282.414062 C 161.671875 282.28125 161.367188 282.117188 161.078125 281.925781 C 160.792969 281.730469 160.523438 281.511719 160.28125 281.265625 C 160.035156 281.023438 159.816406 280.753906 159.621094 280.464844 C 159.429688 280.179688 159.265625 279.875 159.132812 279.554688 C 159 279.234375 158.902344 278.902344 158.832031 278.5625 C 158.765625 278.222656 158.730469 277.878906 158.730469 277.53125 C 158.730469 277.183594 158.765625 276.839844 158.832031 276.5 C 158.902344 276.160156 159 275.828125 159.132812 275.507812 C 159.265625 275.1875 159.429688 274.882812 159.621094 274.59375 C 159.816406 274.308594 160.035156 274.039062 160.28125 273.792969 C 160.523438 273.550781 160.792969 273.332031 161.078125 273.136719 C 161.367188 272.945312 161.671875 272.78125 161.992188 272.648438 C 162.3125 272.515625 162.644531 272.417969 162.984375 272.347656 C 163.324219 272.28125 163.667969 272.246094 164.015625 272.246094 C 164.363281 272.246094 164.707031 272.28125 165.046875 272.347656 C 165.386719 272.417969 165.71875 272.515625 166.039062 272.648438 C 166.359375 272.78125 166.664062 272.945312 166.953125 273.136719 C 167.238281 273.332031 167.507812 273.550781 167.753906 273.792969 C 167.996094 274.039062 168.214844 274.308594 168.410156 274.59375 C 168.601562 274.882812 168.765625 275.1875 168.898438 275.507812 C 169.03125 275.828125 169.128906 276.160156 169.199219 276.5 C 169.265625 276.839844 169.300781 277.183594 169.300781 277.53125 Z M 169.300781 277.53125 " fill-opacity="1" fill-rule="nonzero"/><path fill="#0a5c5d" d="M 164.015625 283.730469 C 160.597656 283.730469 157.816406 280.949219 157.816406 277.53125 C 157.816406 274.113281 160.597656 271.332031 164.015625 271.332031 C 167.433594 271.332031 170.214844 274.113281 170.214844 277.53125 C 170.214844 280.949219 167.433594 283.730469 164.015625 283.730469 Z M 164.015625 273.164062 C 161.605469 273.164062 159.648438 275.121094 159.648438 277.53125 C 159.648438 279.941406 161.605469 281.898438 164.015625 281.898438 C 166.425781 281.898438 168.382812 279.941406 168.382812 277.53125 C 168.382812 275.121094 166.425781 273.164062 164.015625 273.164062 Z M 164.015625 273.164062 " fill-opacity="1" fill-rule="nonzero"/><path fill="#ffffff" d="M 122.960938 579.917969 L 276.425781 579.917969 C 277.410156 579.917969 278.382812 580.011719 279.347656 580.207031 C 280.3125 580.398438 281.246094 580.679688 282.152344 581.058594 C 283.0625 581.433594 283.925781 581.894531 284.742188 582.441406 C 285.558594 582.984375 286.3125 583.605469 287.007812 584.300781 C 287.703125 584.996094 288.324219 585.75 288.871094 586.570312 C 289.414062 587.386719 289.875 588.246094 290.253906 589.15625 C 290.628906 590.0625 290.914062 591 291.105469 591.960938 C 291.296875 592.925781 291.390625 593.898438 291.390625 594.882812 L 291.390625 721.824219 C 291.390625 722.808594 291.296875 723.78125 291.105469 724.746094 C 290.914062 725.707031 290.628906 726.644531 290.253906 727.550781 C 289.875 728.460938 289.414062 729.320312 288.871094 730.136719 C 288.324219 730.957031 287.703125 731.710938 287.007812 732.40625 C 286.3125 733.101562 285.558594 733.722656 284.742188 734.265625 C 283.925781 734.8125 283.0625 735.273438 282.152344 735.648438 C 281.246094 736.027344 280.3125 736.308594 279.347656 736.5 C 278.382812 736.695312 277.410156 736.789062 276.425781 736.789062 L 122.960938 736.789062 C 121.980469 736.789062 121.007812 736.695312 120.042969 736.5 C 119.078125 736.308594 118.144531 736.027344 117.234375 735.648438 C 116.328125 735.273438 115.464844 734.8125 114.648438 734.265625 C 113.832031 733.722656 113.074219 733.101562 112.378906 732.40625 C 111.683594 731.710938 111.066406 730.957031 110.519531 730.136719 C 109.972656 729.320312 109.511719 728.460938 109.136719 727.550781 C 108.761719 726.644531 108.476562 725.707031 108.285156 724.746094 C 108.09375 723.78125 107.996094 722.808594 107.996094 721.824219 L 107.996094 594.882812 C 107.996094 593.898438 108.09375 592.925781 108.285156 591.960938 C 108.476562 591 108.761719 590.0625 109.136719 589.15625 C 109.511719 588.246094 109.972656 587.386719 110.519531 586.566406 C 111.066406 585.75 111.683594 584.996094 112.378906 584.300781 C 113.074219 583.605469 113.832031 582.984375 114.648438 582.441406 C 115.464844 581.894531 116.328125 581.433594 117.234375 581.058594 C 118.144531 580.679688 119.078125 580.398438 120.042969 580.207031 C 121.007812 580.011719 121.980469 579.917969 122.960938 579.917969 Z M 122.960938 579.917969 " fill-opacity="1" fill-rule="nonzero"/><path fill="#0a5c5d" d="M 276.425781 737.707031 L 122.960938 737.707031 C 114.207031 737.707031 107.082031 730.582031 107.082031 721.824219 L 107.082031 594.882812 C 107.082031 586.125 114.207031 579.003906 122.960938 579.003906 L 276.425781 579.003906 C 285.183594 579.003906 292.308594 586.125 292.308594 594.882812 L 292.308594 721.824219 C 292.308594 730.582031 285.183594 737.707031 276.425781 737.707031 Z M 122.960938 580.832031 C 115.214844 580.832031 108.914062 587.136719 108.914062 594.882812 L 108.914062 721.824219 C 108.914062 729.570312 115.214844 735.871094 122.960938 735.871094 L 276.425781 735.871094 C 284.175781 735.871094 290.476562 729.570312 290.476562 721.824219 L 290.476562 594.882812 C 290.476562 587.136719 284.171875 580.832031 276.425781 580.832031 Z M 122.960938 580.832031 " fill-opacity="1" fill-rule="nonzero"/><path fill="#ffffff" d="M 264.386719 599.542969 C 265.128906 599.542969 265.863281 599.617188 266.59375 599.761719 C 267.324219 599.90625 268.03125 600.121094 268.71875 600.40625 C 269.40625 600.691406 270.058594 601.039062 270.675781 601.453125 C 271.292969 601.863281 271.863281 602.332031 272.390625 602.859375 C 272.917969 603.386719 273.386719 603.957031 273.796875 604.574219 C 274.210938 605.191406 274.558594 605.84375 274.84375 606.53125 C 275.128906 607.21875 275.34375 607.925781 275.488281 608.65625 C 275.632812 609.386719 275.707031 610.121094 275.707031 610.863281 L 275.707031 705.84375 C 275.707031 706.585938 275.632812 707.324219 275.488281 708.050781 C 275.34375 708.78125 275.128906 709.488281 274.84375 710.175781 C 274.558594 710.863281 274.210938 711.515625 273.796875 712.132812 C 273.386719 712.75 272.917969 713.324219 272.390625 713.847656 C 271.863281 714.375 271.292969 714.84375 270.675781 715.253906 C 270.058594 715.667969 269.40625 716.015625 268.71875 716.300781 C 268.03125 716.585938 267.324219 716.800781 266.59375 716.945312 C 265.863281 717.089844 265.128906 717.164062 264.386719 717.164062 C 263.640625 717.164062 262.90625 717.089844 262.175781 716.945312 C 261.449219 716.800781 260.742188 716.585938 260.054688 716.300781 C 259.367188 716.015625 258.714844 715.667969 258.097656 715.253906 C 257.476562 714.84375 256.90625 714.375 256.382812 713.847656 C 255.855469 713.324219 255.386719 712.75 254.972656 712.132812 C 254.558594 711.515625 254.210938 710.863281 253.925781 710.175781 C 253.640625 709.488281 253.425781 708.78125 253.28125 708.050781 C 253.136719 707.324219 253.066406 706.585938 253.066406 705.84375 L 253.066406 610.863281 C 253.066406 610.121094 253.136719 609.386719 253.28125 608.65625 C 253.425781 607.925781 253.640625 607.21875 253.925781 606.53125 C 254.210938 605.84375 254.558594 605.191406 254.972656 604.574219 C 255.386719 603.957031 255.855469 603.386719 256.382812 602.859375 C 256.90625 602.332031 257.476562 601.863281 258.097656 601.453125 C 258.714844 601.039062 259.367188 600.691406 260.054688 600.40625 C 260.742188 600.121094 261.449219 599.90625 262.175781 599.761719 C 262.90625 599.617188 263.640625 599.542969 264.386719 599.542969 Z M 264.386719 599.542969 " fill-opacity="1" fill-rule="nonzero"/><path fill="#0a5c5d" d="M 264.386719 718.078125 C 257.636719 718.078125 252.148438 712.589844 252.148438 705.84375 L 252.148438 610.863281 C 252.148438 604.117188 257.636719 598.628906 264.386719 598.628906 C 271.132812 598.628906 276.621094 604.117188 276.621094 610.863281 L 276.621094 705.84375 C 276.621094 712.589844 271.132812 718.078125 264.386719 718.078125 Z M 264.386719 600.460938 C 258.648438 600.460938 253.980469 605.128906 253.980469 610.863281 L 253.980469 705.84375 C 253.980469 711.578125 258.648438 716.246094 264.386719 716.246094 C 270.121094 716.246094 274.789062 711.578125 274.789062 705.84375 L 274.789062 610.863281 C 274.789062 605.128906 270.121094 600.460938 264.386719 600.460938 Z M 264.386719 600.460938 " fill-opacity="1" fill-rule="nonzero"/><path fill="#ffffff" d="M 221.257812 599.542969 C 222 599.542969 222.738281 599.617188 223.464844 599.761719 C 224.195312 599.90625 224.902344 600.121094 225.589844 600.40625 C 226.277344 600.691406 226.929688 601.039062 227.546875 601.453125 C 228.164062 601.863281 228.738281 602.332031 229.261719 602.859375 C 229.789062 603.386719 230.257812 603.957031 230.671875 604.574219 C 231.082031 605.191406 231.433594 605.84375 231.714844 606.53125 C 232 607.21875 232.214844 607.925781 232.359375 608.65625 C 232.507812 609.386719 232.578125 610.121094 232.578125 610.863281 L 232.578125 705.84375 C 232.578125 706.585938 232.507812 707.324219 232.359375 708.050781 C 232.214844 708.78125 232 709.488281 231.714844 710.175781 C 231.433594 710.863281 231.082031 711.515625 230.671875 712.132812 C 230.257812 712.75 229.789062 713.320312 229.261719 713.847656 C 228.738281 714.375 228.164062 714.84375 227.546875 715.253906 C 226.929688 715.667969 226.277344 716.015625 225.589844 716.300781 C 224.902344 716.585938 224.195312 716.800781 223.464844 716.945312 C 222.738281 717.089844 222 717.164062 221.257812 717.164062 C 220.515625 717.164062 219.777344 717.089844 219.050781 716.945312 C 218.320312 716.800781 217.613281 716.585938 216.925781 716.300781 C 216.238281 716.015625 215.585938 715.667969 214.96875 715.253906 C 214.351562 714.84375 213.777344 714.375 213.253906 713.847656 C 212.726562 713.324219 212.257812 712.75 211.84375 712.132812 C 211.433594 711.515625 211.082031 710.863281 210.800781 710.175781 C 210.515625 709.488281 210.300781 708.78125 210.15625 708.050781 C 210.011719 707.324219 209.9375 706.585938 209.9375 705.84375 L 209.9375 610.863281 C 209.9375 610.121094 210.011719 609.386719 210.15625 608.65625 C 210.300781 607.925781 210.515625 607.21875 210.800781 606.53125 C 211.082031 605.84375 211.433594 605.191406 211.84375 604.574219 C 212.257812 603.957031 212.726562 603.386719 213.253906 602.859375 C 213.777344 602.332031 214.351562 601.863281 214.96875 601.453125 C 215.585938 601.039062 216.238281 600.691406 216.925781 600.40625 C 217.613281 600.121094 218.320312 599.90625 219.050781 599.761719 C 219.777344 599.617188 220.515625 599.542969 221.257812 599.542969 Z M 221.257812 599.542969 " fill-opacity="1" fill-rule="nonzero"/><path fill="#0a5c5d" d="M 221.257812 718.078125 C 214.511719 718.078125 209.019531 712.589844 209.019531 705.84375 L 209.019531 610.863281 C 209.019531 604.117188 214.511719 598.628906 221.257812 598.628906 C 228.003906 598.628906 233.496094 604.117188 233.496094 610.863281 L 233.496094 705.84375 C 233.496094 712.589844 228.003906 718.078125 221.257812 718.078125 Z M 221.257812 600.460938 C 215.519531 600.460938 210.855469 605.128906 210.855469 610.863281 L 210.855469 705.84375 C 210.855469 711.578125 215.519531 716.246094 221.257812 716.246094 C 226.996094 716.246094 231.664062 711.578125 231.664062 705.84375 L 231.664062 610.863281 C 231.664062 605.128906 226.996094 600.460938 221.257812 600.460938 Z M 221.257812 600.460938 " fill-opacity="1" fill-rule="nonzero"/><path fill="#ffffff" d="M 178.128906 599.542969 C 178.875 599.542969 179.609375 599.617188 180.339844 599.761719 C 181.066406 599.90625 181.777344 600.121094 182.464844 600.40625 C 183.148438 600.691406 183.800781 601.039062 184.421875 601.453125 C 185.039062 601.863281 185.609375 602.332031 186.136719 602.859375 C 186.660156 603.386719 187.128906 603.957031 187.542969 604.574219 C 187.957031 605.191406 188.304688 605.84375 188.589844 606.53125 C 188.875 607.21875 189.089844 607.925781 189.234375 608.65625 C 189.378906 609.386719 189.453125 610.121094 189.453125 610.863281 L 189.453125 705.84375 C 189.453125 706.585938 189.378906 707.324219 189.234375 708.050781 C 189.089844 708.78125 188.875 709.488281 188.589844 710.175781 C 188.304688 710.863281 187.957031 711.515625 187.542969 712.132812 C 187.128906 712.75 186.660156 713.320312 186.136719 713.847656 C 185.609375 714.375 185.039062 714.84375 184.421875 715.253906 C 183.800781 715.667969 183.148438 716.015625 182.464844 716.300781 C 181.777344 716.585938 181.066406 716.800781 180.339844 716.945312 C 179.609375 717.089844 178.875 717.164062 178.128906 717.164062 C 177.386719 717.164062 176.652344 717.089844 175.921875 716.945312 C 175.191406 716.800781 174.484375 716.585938 173.796875 716.300781 C 173.113281 716.015625 172.460938 715.667969 171.839844 715.253906 C 171.222656 714.84375 170.652344 714.375 170.125 713.847656 C 169.601562 713.324219 169.132812 712.75 168.71875 712.132812 C 168.304688 711.515625 167.957031 710.863281 167.671875 710.175781 C 167.386719 709.488281 167.171875 708.78125 167.027344 708.050781 C 166.882812 707.324219 166.808594 706.585938 166.808594 705.84375 L 166.808594 610.863281 C 166.808594 610.121094 166.882812 609.386719 167.027344 608.65625 C 167.171875 607.925781 167.386719 607.21875 167.671875 606.53125 C 167.957031 605.84375 168.304688 605.191406 168.71875 604.574219 C 169.132812 603.957031 169.601562 603.386719 170.125 602.859375 C 170.652344 602.332031 171.222656 601.863281 171.839844 601.453125 C 172.460938 601.039062 173.113281 600.691406 173.796875 600.40625 C 174.484375 600.121094 175.191406 599.90625 175.921875 599.761719 C 176.652344 599.617188 177.386719 599.542969 178.128906 599.542969 Z M 178.128906 599.542969 " fill-opacity="1" fill-rule="nonzero"/><path fill="#0a5c5d" d="M 178.132812 718.078125 C 171.382812 718.078125 165.894531 712.589844 165.894531 705.84375 L 165.894531 610.863281 C 165.894531 604.117188 171.382812 598.628906 178.132812 598.628906 C 184.878906 598.628906 190.367188 604.117188 190.367188 610.863281 L 190.367188 705.84375 C 190.367188 712.589844 184.878906 718.078125 178.132812 718.078125 Z M 178.132812 600.460938 C 172.394531 600.460938 167.726562 605.128906 167.726562 610.863281 L 167.726562 705.84375 C 167.726562 711.578125 172.394531 716.246094 178.132812 716.246094 C 183.867188 716.246094 188.535156 711.578125 188.535156 705.84375 L 188.535156 610.863281 C 188.535156 605.128906 183.867188 600.460938 178.132812 600.460938 Z M 178.132812 600.460938 " fill-opacity="1" fill-rule="nonzero"/><path fill="#ffffff" d="M 135.003906 599.542969 C 135.746094 599.542969 136.484375 599.617188 137.210938 599.761719 C 137.941406 599.90625 138.648438 600.121094 139.335938 600.40625 C 140.023438 600.691406 140.675781 601.039062 141.292969 601.453125 C 141.910156 601.863281 142.484375 602.332031 143.007812 602.859375 C 143.535156 603.386719 144.003906 603.957031 144.417969 604.574219 C 144.828125 605.191406 145.179688 605.84375 145.460938 606.53125 C 145.746094 607.21875 145.960938 607.925781 146.105469 608.65625 C 146.25 609.386719 146.324219 610.121094 146.324219 610.863281 L 146.324219 705.84375 C 146.324219 706.585938 146.25 707.324219 146.105469 708.050781 C 145.960938 708.78125 145.746094 709.488281 145.460938 710.175781 C 145.179688 710.863281 144.828125 711.515625 144.417969 712.132812 C 144.003906 712.75 143.535156 713.320312 143.007812 713.847656 C 142.484375 714.375 141.910156 714.84375 141.292969 715.253906 C 140.675781 715.667969 140.023438 716.015625 139.335938 716.300781 C 138.648438 716.585938 137.941406 716.800781 137.210938 716.945312 C 136.484375 717.089844 135.746094 717.164062 135.003906 717.164062 C 134.261719 717.164062 133.523438 717.089844 132.796875 716.945312 C 132.066406 716.800781 131.359375 716.585938 130.671875 716.300781 C 129.984375 716.015625 129.332031 715.667969 128.714844 715.253906 C 128.097656 714.84375 127.523438 714.375 127 713.847656 C 126.472656 713.324219 126.003906 712.75 125.589844 712.132812 C 125.179688 711.515625 124.828125 710.863281 124.542969 710.175781 C 124.261719 709.488281 124.046875 708.78125 123.902344 708.050781 C 123.753906 707.324219 123.683594 706.585938 123.683594 705.84375 L 123.683594 610.863281 C 123.683594 610.121094 123.753906 609.386719 123.902344 608.65625 C 124.046875 607.925781 124.261719 607.21875 124.542969 606.53125 C 124.828125 605.84375 125.179688 605.191406 125.589844 604.574219 C 126.003906 603.957031 126.472656 603.386719 127 602.859375 C 127.523438 602.332031 128.097656 601.863281 128.714844 601.453125 C 129.332031 601.039062 129.984375 600.691406 130.671875 600.40625 C 131.359375 600.121094 132.066406 599.90625 132.796875 599.761719 C 133.523438 599.617188 134.261719 599.542969 135.003906 599.542969 Z M 135.003906 599.542969 " fill-opacity="1" fill-rule="nonzero"/><path fill="#0a5c5d" d="M 135.003906 718.078125 C 128.257812 718.078125 122.765625 712.589844 122.765625 705.84375 L 122.765625 610.863281 C 122.765625 604.117188 128.257812 598.628906 135.003906 598.628906 C 141.75 598.628906 147.238281 604.117188 147.238281 610.863281 L 147.238281 705.84375 C 147.238281 712.589844 141.75 718.078125 135.003906 718.078125 Z M 135.003906 600.460938 C 129.265625 600.460938 124.597656 605.128906 124.597656 610.863281 L 124.597656 705.84375 C 124.597656 711.578125 129.265625 716.246094 135.003906 716.246094 C 140.742188 716.246094 145.40625 711.578125 145.40625 705.84375 L 145.40625 610.863281 C 145.40625 605.128906 140.742188 600.460938 135.003906 600.460938 Z M 135.003906 600.460938 " fill-opacity="1" fill-rule="nonzero"/><path fill="#0a5c5d" d="M 264.386719 615.777344 C 265.128906 615.777344 265.863281 615.847656 266.59375 615.992188 C 267.324219 616.140625 268.03125 616.351562 268.71875 616.636719 C 269.40625 616.921875 270.058594 617.269531 270.675781 617.683594 C 271.292969 618.097656 271.863281 618.566406 272.390625 619.09375 C 272.917969 619.617188 273.386719 620.1875 273.796875 620.808594 C 274.210938 621.425781 274.558594 622.078125 274.84375 622.765625 C 275.128906 623.453125 275.34375 624.160156 275.488281 624.886719 C 275.632812 625.617188 275.707031 626.351562 275.707031 627.097656 L 275.707031 705.84375 C 275.707031 706.585938 275.632812 707.320312 275.488281 708.050781 C 275.34375 708.78125 275.128906 709.488281 274.84375 710.175781 C 274.558594 710.863281 274.210938 711.515625 273.796875 712.132812 C 273.386719 712.75 272.917969 713.320312 272.390625 713.847656 C 271.863281 714.371094 271.292969 714.84375 270.675781 715.253906 C 270.058594 715.667969 269.40625 716.015625 268.71875 716.300781 C 268.03125 716.585938 267.324219 716.800781 266.59375 716.945312 C 265.863281 717.089844 265.128906 717.164062 264.386719 717.164062 C 263.640625 717.164062 262.90625 717.089844 262.175781 716.945312 C 261.449219 716.800781 260.742188 716.585938 260.054688 716.300781 C 259.367188 716.015625 258.714844 715.667969 258.097656 715.253906 C 257.476562 714.84375 256.90625 714.371094 256.382812 713.847656 C 255.855469 713.320312 255.386719 712.75 254.972656 712.132812 C 254.558594 711.515625 254.210938 710.863281 253.925781 710.175781 C 253.640625 709.488281 253.425781 708.78125 253.28125 708.050781 C 253.136719 707.320312 253.066406 706.585938 253.066406 705.84375 L 253.066406 627.097656 C 253.066406 626.351562 253.136719 625.617188 253.28125 624.886719 C 253.425781 624.160156 253.640625 623.453125 253.925781 622.765625 C 254.210938 622.078125 254.558594 621.425781 254.972656 620.808594 C 255.386719 620.1875 255.855469 619.617188 256.382812 619.09375 C 256.90625 618.566406 257.476562 618.097656 258.097656 617.683594 C 258.714844 617.269531 259.367188 616.921875 260.054688 616.636719 C 260.742188 616.351562 261.449219 616.140625 262.175781 615.992188 C 262.90625 615.847656 263.640625 615.777344 264.386719 615.777344 Z M 264.386719 615.777344 " fill-opacity="1" fill-rule="nonzero"/><path fill="#0a5c5d" d="M 264.386719 718.078125 C 257.636719 718.078125 252.148438 712.589844 252.148438 705.84375 L 252.148438 627.097656 C 252.148438 620.351562 257.636719 614.859375 264.386719 614.859375 C 271.132812 614.859375 276.621094 620.347656 276.621094 627.097656 L 276.621094 705.84375 C 276.621094 712.589844 271.132812 718.078125 264.386719 718.078125 Z M 264.386719 616.691406 C 258.648438 616.691406 253.980469 621.359375 253.980469 627.097656 L 253.980469 705.84375 C 253.980469 711.582031 258.648438 716.246094 264.386719 716.246094 C 270.121094 716.246094 274.789062 711.582031 274.789062 705.84375 L 274.789062 627.097656 C 274.789062 621.359375 270.121094 616.691406 264.386719 616.691406 Z M 264.386719 616.691406 " fill-opacity="1" fill-rule="nonzero"/><path fill="#0a5c5d" d="M 221.257812 636.015625 C 222 636.015625 222.738281 636.089844 223.464844 636.234375 C 224.195312 636.378906 224.902344 636.59375 225.589844 636.878906 C 226.277344 637.164062 226.929688 637.511719 227.546875 637.925781 C 228.164062 638.335938 228.738281 638.804688 229.261719 639.332031 C 229.789062 639.859375 230.257812 640.429688 230.671875 641.046875 C 231.082031 641.664062 231.433594 642.316406 231.714844 643.003906 C 232 643.691406 232.214844 644.398438 232.359375 645.128906 C 232.507812 645.859375 232.578125 646.59375 232.578125 647.335938 L 232.578125 705.84375 C 232.578125 706.585938 232.507812 707.324219 232.359375 708.050781 C 232.214844 708.78125 232 709.488281 231.714844 710.175781 C 231.433594 710.863281 231.082031 711.515625 230.671875 712.132812 C 230.257812 712.75 229.789062 713.324219 229.261719 713.847656 C 228.738281 714.375 228.164062 714.84375 227.546875 715.253906 C 226.929688 715.667969 226.277344 716.015625 225.589844 716.300781 C 224.902344 716.585938 224.195312 716.800781 223.464844 716.945312 C 222.738281 717.089844 222 717.164062 221.257812 717.164062 C 220.515625 717.164062 219.777344 717.089844 219.050781 716.945312 C 218.320312 716.800781 217.613281 716.585938 216.925781 716.300781 C 216.238281 716.015625 215.585938 715.667969 214.96875 715.253906 C 214.351562 714.84375 213.777344 714.375 213.253906 713.847656 C 212.726562 713.324219 212.257812 712.75 211.84375 712.132812 C 211.433594 711.515625 211.082031 710.863281 210.800781 710.175781 C 210.515625 709.488281 210.300781 708.78125 210.15625 708.050781 C 210.011719 707.324219 209.9375 706.585938 209.9375 705.84375 L 209.9375 647.335938 C 209.9375 646.59375 210.011719 645.859375 210.15625 645.128906 C 210.300781 644.398438 210.515625 643.691406 210.800781 643.003906 C 211.082031 642.316406 211.433594 641.664062 211.84375 641.046875 C 212.257812 640.429688 212.726562 639.859375 213.253906 639.332031 C 213.777344 638.804688 214.351562 638.335938 214.96875 637.925781 C 215.585938 637.511719 216.238281 637.164062 216.925781 636.878906 C 217.613281 636.59375 218.320312 636.378906 219.050781 636.234375 C 219.777344 636.089844 220.515625 636.015625 221.257812 636.015625 Z M 221.257812 636.015625 " fill-opacity="1" fill-rule="nonzero"/><path fill="#0a5c5d" d="M 221.257812 718.078125 C 214.511719 718.078125 209.019531 712.589844 209.019531 705.84375 L 209.019531 647.335938 C 209.019531 640.589844 214.511719 635.101562 221.257812 635.101562 C 228.003906 635.101562 233.496094 640.589844 233.496094 647.335938 L 233.496094 705.84375 C 233.496094 712.589844 228.003906 718.078125 221.257812 718.078125 Z M 221.257812 636.933594 C 215.519531 636.933594 210.855469 641.601562 210.855469 647.335938 L 210.855469 705.84375 C 210.855469 711.578125 215.519531 716.246094 221.257812 716.246094 C 226.996094 716.246094 231.664062 711.578125 231.664062 705.84375 L 231.664062 647.335938 C 231.664062 641.601562 226.996094 636.933594 221.257812 636.933594 Z M 221.257812 636.933594 " fill-opacity="1" fill-rule="nonzero"/><path fill="#0a5c5d" d="M 178.128906 662.035156 C 178.875 662.035156 179.609375 662.105469 180.339844 662.25 C 181.066406 662.398438 181.777344 662.613281 182.464844 662.894531 C 183.148438 663.179688 183.800781 663.527344 184.421875 663.941406 C 185.039062 664.355469 185.609375 664.824219 186.136719 665.351562 C 186.660156 665.875 187.128906 666.449219 187.542969 667.066406 C 187.957031 667.683594 188.304688 668.335938 188.589844 669.023438 C 188.875 669.710938 189.089844 670.417969 189.234375 671.144531 C 189.378906 671.875 189.453125 672.613281 189.453125 673.355469 L 189.453125 705.84375 C 189.453125 706.585938 189.378906 707.324219 189.234375 708.050781 C 189.089844 708.78125 188.875 709.488281 188.589844 710.175781 C 188.304688 710.863281 187.957031 711.515625 187.542969 712.132812 C 187.128906 712.75 186.660156 713.320312 186.136719 713.847656 C 185.609375 714.375 185.039062 714.84375 184.421875 715.253906 C 183.800781 715.667969 183.148438 716.015625 182.464844 716.300781 C 181.777344 716.585938 181.066406 716.800781 180.339844 716.945312 C 179.609375 717.089844 178.875 717.164062 178.128906 717.164062 C 177.386719 717.164062 176.652344 717.089844 175.921875 716.945312 C 175.191406 716.800781 174.484375 716.585938 173.796875 716.300781 C 173.113281 716.015625 172.460938 715.667969 171.839844 715.253906 C 171.222656 714.84375 170.652344 714.375 170.125 713.847656 C 169.601562 713.324219 169.132812 712.75 168.71875 712.132812 C 168.304688 711.515625 167.957031 710.863281 167.671875 710.175781 C 167.386719 709.488281 167.171875 708.78125 167.027344 708.050781 C 166.882812 707.324219 166.808594 706.585938 166.808594 705.84375 L 166.808594 673.355469 C 166.808594 672.613281 166.882812 671.875 167.027344 671.144531 C 167.171875 670.417969 167.386719 669.710938 167.671875 669.023438 C 167.957031 668.335938 168.304688 667.683594 168.71875 667.066406 C 169.132812 666.449219 169.601562 665.875 170.125 665.351562 C 170.652344 664.824219 171.222656 664.355469 171.839844 663.941406 C 172.460938 663.527344 173.113281 663.179688 173.796875 662.894531 C 174.484375 662.613281 175.191406 662.398438 175.921875 662.25 C 176.652344 662.105469 177.386719 662.035156 178.128906 662.035156 Z M 178.128906 662.035156 " fill-opacity="1" fill-rule="nonzero"/><path fill="#0a5c5d" d="M 178.132812 718.078125 C 171.382812 718.078125 165.894531 712.589844 165.894531 705.84375 L 165.894531 673.355469 C 165.894531 666.609375 171.382812 661.117188 178.132812 661.117188 C 184.878906 661.117188 190.367188 666.605469 190.367188 673.355469 L 190.367188 705.84375 C 190.367188 712.589844 184.878906 718.078125 178.132812 718.078125 Z M 178.132812 662.949219 C 172.394531 662.949219 167.726562 667.617188 167.726562 673.355469 L 167.726562 705.84375 C 167.726562 711.582031 172.394531 716.246094 178.132812 716.246094 C 183.867188 716.246094 188.535156 711.582031 188.535156 705.84375 L 188.535156 673.355469 C 188.535156 667.617188 183.867188 662.949219 178.132812 662.949219 Z M 178.132812 662.949219 " fill-opacity="1" fill-rule="nonzero"/><path fill="#0a5c5d" d="M 135.003906 648.117188 C 135.746094 648.117188 136.484375 648.1875 137.210938 648.332031 C 137.941406 648.480469 138.648438 648.695312 139.335938 648.976562 C 140.023438 649.261719 140.675781 649.609375 141.292969 650.023438 C 141.910156 650.4375 142.484375 650.90625 143.007812 651.433594 C 143.535156 651.957031 144.003906 652.53125 144.417969 653.148438 C 144.828125 653.765625 145.179688 654.417969 145.460938 655.105469 C 145.746094 655.792969 145.960938 656.5 146.105469 657.226562 C 146.25 657.957031 146.324219 658.695312 146.324219 659.4375 L 146.324219 705.84375 C 146.324219 706.585938 146.25 707.320312 146.105469 708.050781 C 145.960938 708.78125 145.746094 709.488281 145.460938 710.175781 C 145.179688 710.863281 144.828125 711.515625 144.417969 712.132812 C 144.003906 712.75 143.535156 713.320312 143.007812 713.847656 C 142.484375 714.371094 141.910156 714.84375 141.292969 715.253906 C 140.675781 715.667969 140.023438 716.015625 139.335938 716.300781 C 138.648438 716.585938 137.941406 716.800781 137.210938 716.945312 C 136.484375 717.089844 135.746094 717.164062 135.003906 717.164062 C 134.261719 717.164062 133.523438 717.089844 132.796875 716.945312 C 132.066406 716.800781 131.359375 716.585938 130.671875 716.300781 C 129.984375 716.015625 129.332031 715.667969 128.714844 715.253906 C 128.097656 714.84375 127.523438 714.371094 127 713.847656 C 126.472656 713.320312 126.003906 712.75 125.589844 712.132812 C 125.179688 711.515625 124.828125 710.863281 124.542969 710.175781 C 124.261719 709.488281 124.046875 708.78125 123.902344 708.050781 C 123.753906 707.320312 123.683594 706.585938 123.683594 705.84375 L 123.683594 659.4375 C 123.683594 658.695312 123.753906 657.957031 123.902344 657.226562 C 124.046875 656.5 124.261719 655.792969 124.542969 655.105469 C 124.828125 654.417969 125.179688 653.765625 125.589844 653.148438 C 126.003906 652.53125 126.472656 651.957031 127 651.433594 C 127.523438 650.90625 128.097656 650.4375 128.714844 650.023438 C 129.332031 649.609375 129.984375 649.261719 130.671875 648.976562 C 131.359375 648.695312 132.066406 648.480469 132.796875 648.332031 C 133.523438 648.1875 134.261719 648.117188 135.003906 648.117188 Z M 135.003906 648.117188 " fill-opacity="1" fill-rule="nonzero"/><path fill="#0a5c5d" d="M 135.003906 718.078125 C 128.257812 718.078125 122.765625 712.589844 122.765625 705.84375 L 122.765625 659.4375 C 122.765625 652.691406 128.257812 647.199219 135.003906 647.199219 C 141.75 647.199219 147.238281 652.691406 147.238281 659.4375 L 147.238281 705.84375 C 147.238281 712.589844 141.75 718.078125 135.003906 718.078125 Z M 135.003906 649.03125 C 129.265625 649.03125 124.597656 653.699219 124.597656 659.4375 L 124.597656 705.84375 C 124.597656 711.582031 129.265625 716.25 135.003906 716.25 C 140.742188 716.25 145.40625 711.582031 145.40625 705.84375 L 145.40625 659.4375 C 145.40625 653.699219 140.742188 649.03125 135.003906 649.03125 Z M 135.003906 649.03125 " fill-opacity="1" fill-rule="nonzero"/><path fill="#ffffff" d="M 319.664062 307.097656 L 696.808594 307.097656 C 697.789062 307.097656 698.761719 307.195312 699.726562 307.386719 C 700.691406 307.578125 701.625 307.863281 702.535156 308.238281 C 703.441406 308.613281 704.304688 309.074219 705.121094 309.621094 C 705.9375 310.167969 706.695312 310.789062 707.390625 311.480469 C 708.082031 312.175781 708.703125 312.933594 709.25 313.75 C 709.796875 314.566406 710.257812 315.429688 710.632812 316.335938 C 711.007812 317.246094 711.292969 318.179688 711.484375 319.144531 C 711.675781 320.109375 711.773438 321.082031 711.773438 322.0625 L 711.773438 480.648438 C 711.773438 481.632812 711.675781 482.605469 711.484375 483.570312 C 711.292969 484.53125 711.007812 485.46875 710.632812 486.375 C 710.257812 487.285156 709.796875 488.144531 709.25 488.964844 C 708.703125 489.78125 708.082031 490.535156 707.390625 491.230469 C 706.695312 491.925781 705.9375 492.546875 705.121094 493.089844 C 704.304688 493.636719 703.441406 494.097656 702.535156 494.472656 C 701.625 494.851562 700.691406 495.132812 699.726562 495.324219 C 698.761719 495.519531 697.789062 495.613281 696.808594 495.613281 L 319.664062 495.613281 C 318.679688 495.613281 317.707031 495.519531 316.742188 495.324219 C 315.78125 495.132812 314.84375 494.851562 313.9375 494.472656 C 313.027344 494.097656 312.167969 493.636719 311.347656 493.089844 C 310.53125 492.546875 309.777344 491.925781 309.082031 491.230469 C 308.386719 490.535156 307.765625 489.78125 307.21875 488.964844 C 306.675781 488.144531 306.214844 487.285156 305.835938 486.375 C 305.460938 485.46875 305.175781 484.53125 304.984375 483.570312 C 304.792969 482.605469 304.699219 481.632812 304.699219 480.648438 L 304.699219 322.0625 C 304.699219 321.082031 304.792969 320.109375 304.984375 319.144531 C 305.175781 318.179688 305.460938 317.246094 305.835938 316.335938 C 306.214844 315.429688 306.675781 314.566406 307.21875 313.75 C 307.765625 312.933594 308.386719 312.175781 309.082031 311.480469 C 309.777344 310.789062 310.53125 310.167969 311.347656 309.621094 C 312.167969 309.074219 313.027344 308.613281 313.9375 308.238281 C 314.84375 307.863281 315.78125 307.578125 316.742188 307.386719 C 317.707031 307.195312 318.679688 307.097656 319.664062 307.097656 Z M 319.664062 307.097656 " fill-opacity="1" fill-rule="nonzero"/><path fill="#0a5c5d" d="M 696.808594 496.53125 L 319.664062 496.53125 C 310.90625 496.53125 303.78125 489.40625 303.78125 480.648438 L 303.78125 322.0625 C 303.78125 313.308594 310.90625 306.183594 319.664062 306.183594 L 696.808594 306.183594 C 705.5625 306.183594 712.6875 313.308594 712.6875 322.0625 L 712.6875 480.648438 C 712.6875 489.40625 705.5625 496.53125 696.808594 496.53125 Z M 319.664062 308.015625 C 311.917969 308.015625 305.613281 314.316406 305.613281 322.0625 L 305.613281 480.648438 C 305.613281 488.394531 311.917969 494.695312 319.664062 494.695312 L 696.808594 494.695312 C 704.554688 494.695312 710.855469 488.394531 710.855469 480.648438 L 710.855469 322.0625 C 710.855469 314.316406 704.554688 308.015625 696.808594 308.015625 Z M 319.664062 308.015625 " fill-opacity="1" fill-rule="nonzero"/><path fill="#0a5c5d" d="M 329.460938 415.695312 L 357.988281 415.695312 L 357.988281 466.980469 L 329.460938 466.980469 Z M 329.460938 415.695312 " fill-opacity="1" fill-rule="nonzero"/><path fill="#0a5c5d" d="M 357.992188 467.898438 L 329.460938 467.898438 C 328.957031 467.898438 328.546875 467.488281 328.546875 466.980469 L 328.546875 415.695312 C 328.546875 415.1875 328.957031 414.777344 329.460938 414.777344 L 357.992188 414.777344 C 358.496094 414.777344 358.90625 415.1875 358.90625 415.695312 L 358.90625 466.980469 C 358.90625 467.488281 358.496094 467.898438 357.992188 467.898438 Z M 330.378906 466.066406 L 357.074219 466.066406 L 357.074219 416.609375 L 330.378906 416.609375 Z M 330.378906 466.066406 " fill-opacity="1" fill-rule="nonzero"/><path fill="#ffffff" d="M 376.464844 381.089844 L 404.992188 381.089844 L 404.992188 466.980469 L 376.464844 466.980469 Z M 376.464844 381.089844 " fill-opacity="1" fill-rule="nonzero"/><path fill="#0a5c5d" d="M 404.992188 467.898438 L 376.464844 467.898438 C 375.957031 467.898438 375.546875 467.488281 375.546875 466.980469 L 375.546875 381.089844 C 375.546875 380.582031 375.957031 380.171875 376.464844 380.171875 L 404.992188 380.171875 C 405.5 380.171875 405.910156 380.582031 405.910156 381.089844 L 405.910156 466.980469 C 405.910156 467.488281 405.5 467.898438 404.992188 467.898438 Z M 377.378906 466.066406 L 404.078125 466.066406 L 404.078125 382.003906 L 377.378906 382.003906 Z M 377.378906 466.066406 " fill-opacity="1" fill-rule="nonzero"/><path fill="#0a5c5d" d="M 423.464844 364.070312 L 451.996094 364.070312 L 451.996094 466.980469 L 423.464844 466.980469 Z M 423.464844 364.070312 " fill-opacity="1" fill-rule="nonzero"/><path fill="#0a5c5d" d="M 451.996094 467.898438 L 423.464844 467.898438 C 422.960938 467.898438 422.550781 467.488281 422.550781 466.980469 L 422.550781 364.070312 C 422.550781 363.5625 422.960938 363.152344 423.464844 363.152344 L 451.996094 363.152344 C 452.5 363.152344 452.910156 363.5625 452.910156 364.070312 L 452.910156 466.980469 C 452.910156 467.488281 452.5 467.898438 451.996094 467.898438 Z M 424.382812 466.066406 L 451.078125 466.066406 L 451.078125 364.984375 L 424.382812 364.984375 Z M 424.382812 466.066406 " fill-opacity="1" fill-rule="nonzero"/><path fill="#ffffff" d="M 470.46875 387.398438 L 498.996094 387.398438 L 498.996094 466.980469 L 470.46875 466.980469 Z M 470.46875 387.398438 " fill-opacity="1" fill-rule="nonzero"/><path fill="#0a5c5d" d="M 498.996094 467.898438 L 470.46875 467.898438 C 469.964844 467.898438 469.554688 467.488281 469.554688 466.980469 L 469.554688 387.398438 C 469.554688 386.894531 469.964844 386.484375 470.46875 386.484375 L 498.996094 386.484375 C 499.503906 386.484375 499.914062 386.894531 499.914062 387.398438 L 499.914062 466.980469 C 499.914062 467.488281 499.503906 467.898438 498.996094 467.898438 Z M 471.386719 466.066406 L 498.082031 466.066406 L 498.082031 388.316406 L 471.386719 388.316406 Z M 471.386719 466.066406 " fill-opacity="1" fill-rule="nonzero"/><path fill="#0a5c5d" d="M 517.472656 404.96875 L 546 404.96875 L 546 466.980469 L 517.472656 466.980469 Z M 517.472656 404.96875 " fill-opacity="1" fill-rule="nonzero"/><path fill="#0a5c5d" d="M 546 467.898438 L 517.472656 467.898438 C 516.964844 467.898438 516.554688 467.488281 516.554688 466.980469 L 516.554688 404.96875 C 516.554688 404.464844 516.964844 404.054688 517.472656 404.054688 L 546 404.054688 C 546.507812 404.054688 546.917969 404.464844 546.917969 404.96875 L 546.917969 466.980469 C 546.917969 467.488281 546.507812 467.898438 546 467.898438 Z M 518.386719 466.066406 L 545.085938 466.066406 L 545.085938 405.886719 L 518.386719 405.886719 Z M 518.386719 466.066406 " fill-opacity="1" fill-rule="nonzero"/><path fill="#ffffff" d="M 564.472656 381.089844 L 593.003906 381.089844 L 593.003906 466.980469 L 564.472656 466.980469 Z M 564.472656 381.089844 " fill-opacity="1" fill-rule="nonzero"/><path fill="#0a5c5d" d="M 593.003906 467.898438 L 564.472656 467.898438 C 563.96875 467.898438 563.558594 467.488281 563.558594 466.980469 L 563.558594 381.089844 C 563.558594 380.582031 563.96875 380.171875 564.472656 380.171875 L 593.003906 380.171875 C 593.507812 380.171875 593.917969 380.582031 593.917969 381.089844 L 593.917969 466.980469 C 593.917969 467.488281 593.507812 467.898438 593.003906 467.898438 Z M 565.390625 466.066406 L 592.085938 466.066406 L 592.085938 382.003906 L 565.390625 382.003906 Z M 565.390625 466.066406 " fill-opacity="1" fill-rule="nonzero"/><path fill="#0a5c5d" d="M 611.476562 387.398438 L 640.003906 387.398438 L 640.003906 466.980469 L 611.476562 466.980469 Z M 611.476562 387.398438 " fill-opacity="1" fill-rule="nonzero"/><path fill="#0a5c5d" d="M 640.003906 467.898438 L 611.476562 467.898438 C 610.972656 467.898438 610.5625 467.488281 610.5625 466.980469 L 610.5625 387.398438 C 610.5625 386.894531 610.972656 386.484375 611.476562 386.484375 L 640.003906 386.484375 C 640.511719 386.484375 640.921875 386.894531 640.921875 387.398438 L 640.921875 466.980469 C 640.921875 467.488281 640.511719 467.898438 640.003906 467.898438 Z M 612.394531 466.066406 L 639.089844 466.066406 L 639.089844 388.316406 L 612.394531 388.316406 Z M 612.394531 466.066406 " fill-opacity="1" fill-rule="nonzero"/><path fill="#ffffff" d="M 658.480469 358.121094 L 687.007812 358.121094 L 687.007812 466.984375 L 658.480469 466.984375 Z M 658.480469 358.121094 " fill-opacity="1" fill-rule="nonzero"/><path fill="#0a5c5d" d="M 687.007812 467.898438 L 658.480469 467.898438 C 657.972656 467.898438 657.5625 467.488281 657.5625 466.980469 L 657.5625 358.121094 C 657.5625 357.613281 657.972656 357.203125 658.480469 357.203125 L 687.007812 357.203125 C 687.511719 357.203125 687.925781 357.613281 687.925781 358.121094 L 687.925781 466.980469 C 687.925781 467.488281 687.511719 467.898438 687.007812 467.898438 Z M 659.394531 466.066406 L 686.09375 466.066406 L 686.09375 359.035156 L 659.394531 359.035156 Z M 659.394531 466.066406 " fill-opacity="1" fill-rule="nonzero"/><path fill="#ffffff" d="M 319.664062 511.855469 L 696.808594 511.855469 C 697.789062 511.855469 698.761719 511.949219 699.726562 512.140625 C 700.691406 512.335938 701.625 512.617188 702.535156 512.992188 C 703.441406 513.371094 704.304688 513.832031 705.121094 514.375 C 705.9375 514.921875 706.695312 515.542969 707.390625 516.238281 C 708.082031 516.933594 708.703125 517.6875 709.25 518.503906 C 709.796875 519.324219 710.257812 520.183594 710.632812 521.09375 C 711.007812 522 711.292969 522.9375 711.484375 523.898438 C 711.675781 524.863281 711.773438 525.835938 711.773438 526.820312 L 711.773438 721.824219 C 711.773438 722.808594 711.675781 723.78125 711.484375 724.746094 C 711.292969 725.707031 711.007812 726.644531 710.632812 727.550781 C 710.257812 728.460938 709.796875 729.320312 709.25 730.136719 C 708.703125 730.957031 708.082031 731.710938 707.390625 732.40625 C 706.695312 733.101562 705.9375 733.722656 705.121094 734.265625 C 704.304688 734.8125 703.441406 735.273438 702.535156 735.648438 C 701.625 736.027344 700.691406 736.308594 699.726562 736.5 C 698.761719 736.695312 697.789062 736.789062 696.808594 736.789062 L 319.664062 736.789062 C 318.679688 736.789062 317.707031 736.695312 316.742188 736.5 C 315.78125 736.308594 314.84375 736.027344 313.9375 735.648438 C 313.027344 735.273438 312.167969 734.8125 311.347656 734.265625 C 310.53125 733.722656 309.777344 733.101562 309.082031 732.40625 C 308.386719 731.710938 307.765625 730.957031 307.21875 730.136719 C 306.675781 729.320312 306.214844 728.460938 305.835938 727.550781 C 305.460938 726.644531 305.175781 725.707031 304.984375 724.746094 C 304.792969 723.78125 304.699219 722.808594 304.699219 721.824219 L 304.699219 526.820312 C 304.699219 525.835938 304.792969 524.863281 304.984375 523.898438 C 305.175781 522.9375 305.460938 522 305.835938 521.09375 C 306.214844 520.183594 306.675781 519.324219 307.21875 518.503906 C 307.765625 517.6875 308.386719 516.933594 309.082031 516.238281 C 309.777344 515.542969 310.53125 514.921875 311.347656 514.375 C 312.167969 513.832031 313.027344 513.371094 313.9375 512.992188 C 314.84375 512.617188 315.78125 512.335938 316.742188 512.140625 C 317.707031 511.949219 318.679688 511.855469 319.664062 511.855469 Z M 319.664062 511.855469 " fill-opacity="1" fill-rule="nonzero"/><path fill="#0a5c5d" d="M 696.808594 737.707031 L 319.664062 737.707031 C 310.90625 737.707031 303.78125 730.582031 303.78125 721.824219 L 303.78125 526.820312 C 303.78125 518.0625 310.90625 510.9375 319.664062 510.9375 L 696.808594 510.9375 C 705.5625 510.9375 712.6875 518.0625 712.6875 526.820312 L 712.6875 721.824219 C 712.6875 730.582031 705.5625 737.707031 696.808594 737.707031 Z M 319.664062 512.769531 C 311.917969 512.769531 305.613281 519.074219 305.613281 526.820312 L 305.613281 721.824219 C 305.613281 729.570312 311.917969 735.871094 319.664062 735.871094 L 696.808594 735.871094 C 704.554688 735.871094 710.855469 729.570312 710.855469 721.824219 L 710.855469 526.820312 C 710.855469 519.074219 704.554688 512.769531 696.808594 512.769531 Z M 319.664062 512.769531 " fill-opacity="1" fill-rule="nonzero"/><path fill="#0a5c5d" d="M 436.195312 667.710938 C 435.867188 667.710938 435.5625 667.535156 435.398438 667.25 L 423.363281 646.195312 L 406.1875 661.539062 C 405.871094 661.820312 405.40625 661.847656 405.058594 661.613281 L 362.15625 632.300781 C 362.023438 632.210938 361.914062 632.085938 361.84375 631.941406 L 352.207031 611.949219 L 321.019531 651.453125 C 320.707031 651.851562 320.132812 651.917969 319.734375 651.605469 C 319.335938 651.292969 319.269531 650.714844 319.582031 650.316406 L 351.675781 609.664062 C 351.871094 609.414062 352.179688 609.285156 352.496094 609.320312 C 352.808594 609.355469 353.082031 609.546875 353.222656 609.832031 L 363.390625 630.925781 L 405.5 659.695312 L 422.988281 644.078125 C 423.195312 643.890625 423.472656 643.8125 423.746094 643.855469 C 424.019531 643.898438 424.253906 644.066406 424.394531 644.304688 L 436.191406 664.941406 L 452.496094 636.085938 C 452.679688 635.757812 453.050781 635.574219 453.425781 635.628906 L 479.480469 639.425781 L 497.125 621.070312 C 497.203125 620.988281 497.289062 620.925781 497.386719 620.878906 L 529.230469 605.488281 C 529.644531 605.289062 530.140625 605.425781 530.394531 605.804688 L 551.351562 637.257812 L 582.746094 600.789062 C 582.808594 600.71875 582.878906 600.660156 582.957031 600.609375 L 617.425781 579.140625 C 617.691406 578.976562 618.019531 578.957031 618.300781 579.089844 L 676.746094 606.71875 L 698.871094 590.945312 C 699.28125 590.652344 699.851562 590.746094 700.148438 591.160156 C 700.441406 591.570312 700.34375 592.144531 699.933594 592.4375 L 677.371094 608.523438 C 677.101562 608.714844 676.75 608.746094 676.449219 608.605469 L 617.96875 580.960938 L 584.042969 602.089844 L 551.953125 639.367188 C 551.769531 639.585938 551.496094 639.703125 551.203125 639.683594 C 550.917969 639.667969 550.65625 639.515625 550.496094 639.277344 L 529.3125 607.488281 L 498.332031 622.457031 L 480.476562 641.035156 C 480.269531 641.25 479.972656 641.347656 479.683594 641.304688 L 453.78125 637.535156 L 436.992188 667.246094 C 436.832031 667.535156 436.527344 667.710938 436.199219 667.710938 Z M 436.195312 667.710938 " fill-opacity="1" fill-rule="nonzero"/><path fill="#18b7c9" d="M 627.003906 579.917969 C 627.003906 580.515625 626.945312 581.105469 626.832031 581.691406 C 626.714844 582.277344 626.542969 582.847656 626.3125 583.398438 C 626.085938 583.949219 625.804688 584.472656 625.472656 584.972656 C 625.140625 585.46875 624.761719 585.925781 624.339844 586.347656 C 623.917969 586.773438 623.460938 587.148438 622.960938 587.480469 C 622.464844 587.8125 621.941406 588.09375 621.390625 588.320312 C 620.839844 588.550781 620.269531 588.722656 619.683594 588.839844 C 619.097656 588.957031 618.507812 589.015625 617.910156 589.015625 C 617.3125 589.015625 616.71875 588.957031 616.132812 588.839844 C 615.550781 588.722656 614.980469 588.550781 614.429688 588.320312 C 613.875 588.09375 613.351562 587.8125 612.855469 587.480469 C 612.359375 587.148438 611.898438 586.773438 611.476562 586.347656 C 611.054688 585.925781 610.679688 585.46875 610.347656 584.972656 C 610.015625 584.472656 609.734375 583.949219 609.503906 583.398438 C 609.277344 582.847656 609.105469 582.277344 608.988281 581.691406 C 608.871094 581.105469 608.8125 580.515625 608.8125 579.917969 C 608.8125 579.320312 608.871094 578.730469 608.988281 578.144531 C 609.105469 577.558594 609.277344 576.988281 609.503906 576.4375 C 609.734375 575.886719 610.015625 575.359375 610.347656 574.863281 C 610.679688 574.367188 611.054688 573.910156 611.476562 573.484375 C 611.898438 573.0625 612.359375 572.6875 612.855469 572.355469 C 613.351562 572.023438 613.875 571.742188 614.429688 571.515625 C 614.980469 571.285156 615.550781 571.113281 616.132812 570.996094 C 616.71875 570.878906 617.3125 570.820312 617.910156 570.820312 C 618.507812 570.820312 619.097656 570.878906 619.683594 570.996094 C 620.269531 571.113281 620.839844 571.285156 621.390625 571.515625 C 621.941406 571.742188 622.464844 572.023438 622.960938 572.355469 C 623.460938 572.6875 623.917969 573.0625 624.339844 573.484375 C 624.761719 573.910156 625.140625 574.367188 625.472656 574.863281 C 625.804688 575.359375 626.085938 575.886719 626.3125 576.4375 C 626.542969 576.988281 626.714844 577.558594 626.832031 578.144531 C 626.945312 578.730469 627.003906 579.320312 627.003906 579.917969 Z M 627.003906 579.917969 " fill-opacity="1" fill-rule="nonzero"/><path fill="#18b7c9" d="M 617.910156 589.929688 C 612.390625 589.929688 607.898438 585.4375 607.898438 579.917969 C 607.898438 574.398438 612.390625 569.90625 617.910156 569.90625 C 623.429688 569.90625 627.921875 574.398438 627.921875 579.917969 C 627.921875 585.4375 623.429688 589.929688 617.910156 589.929688 Z M 617.910156 571.738281 C 613.398438 571.738281 609.730469 575.40625 609.730469 579.917969 C 609.730469 584.429688 613.398438 588.097656 617.910156 588.097656 C 622.421875 588.097656 626.089844 584.429688 626.089844 579.917969 C 626.089844 575.40625 622.421875 571.738281 617.910156 571.738281 Z M 617.910156 571.738281 " fill-opacity="1" fill-rule="nonzero"/><path fill="#ffffff" d="M 121.800781 307.097656 L 276.425781 307.097656 C 277.410156 307.097656 278.382812 307.195312 279.347656 307.386719 C 280.3125 307.578125 281.246094 307.863281 282.152344 308.238281 C 283.0625 308.613281 283.925781 309.074219 284.742188 309.621094 C 285.558594 310.167969 286.3125 310.789062 287.007812 311.480469 C 287.703125 312.175781 288.324219 312.933594 288.871094 313.75 C 289.414062 314.566406 289.875 315.429688 290.253906 316.335938 C 290.628906 317.246094 290.914062 318.179688 291.105469 319.144531 C 291.296875 320.109375 291.390625 321.082031 291.390625 322.0625 L 291.390625 550.976562 C 291.390625 551.960938 291.296875 552.933594 291.105469 553.898438 C 290.914062 554.859375 290.628906 555.796875 290.253906 556.703125 C 289.875 557.613281 289.414062 558.472656 288.871094 559.292969 C 288.324219 560.109375 287.703125 560.863281 287.007812 561.558594 C 286.3125 562.253906 285.558594 562.875 284.742188 563.421875 C 283.925781 563.964844 283.0625 564.425781 282.152344 564.804688 C 281.246094 565.179688 280.3125 565.464844 279.347656 565.65625 C 278.382812 565.847656 277.410156 565.941406 276.425781 565.941406 L 121.800781 565.941406 C 120.816406 565.941406 119.84375 565.847656 118.878906 565.65625 C 117.917969 565.464844 116.980469 565.179688 116.074219 564.804688 C 115.164062 564.425781 114.304688 563.964844 113.484375 563.421875 C 112.667969 562.875 111.914062 562.253906 111.21875 561.558594 C 110.523438 560.863281 109.902344 560.109375 109.359375 559.292969 C 108.8125 558.472656 108.351562 557.613281 107.976562 556.703125 C 107.597656 555.796875 107.316406 554.859375 107.125 553.898438 C 106.929688 552.933594 106.835938 551.960938 106.835938 550.976562 L 106.835938 322.0625 C 106.835938 321.082031 106.929688 320.109375 107.125 319.144531 C 107.316406 318.179688 107.597656 317.246094 107.976562 316.335938 C 108.351562 315.429688 108.8125 314.566406 109.359375 313.75 C 109.902344 312.933594 110.523438 312.175781 111.21875 311.480469 C 111.914062 310.789062 112.667969 310.167969 113.484375 309.621094 C 114.304688 309.074219 115.164062 308.613281 116.074219 308.238281 C 116.980469 307.863281 117.917969 307.578125 118.878906 307.386719 C 119.84375 307.195312 120.816406 307.097656 121.800781 307.097656 Z M 121.800781 307.097656 " fill-opacity="1" fill-rule="nonzero"/><path fill="#0a5c5d" d="M 276.425781 566.859375 L 121.800781 566.859375 C 113.042969 566.859375 105.917969 559.734375 105.917969 550.976562 L 105.917969 322.0625 C 105.917969 313.308594 113.042969 306.183594 121.800781 306.183594 L 276.425781 306.183594 C 285.183594 306.183594 292.308594 313.308594 292.308594 322.0625 L 292.308594 550.976562 C 292.308594 559.734375 285.183594 566.859375 276.425781 566.859375 Z M 121.800781 308.015625 C 114.054688 308.015625 107.75 314.316406 107.75 322.0625 L 107.75 550.976562 C 107.75 558.722656 114.054688 565.027344 121.800781 565.027344 L 276.425781 565.027344 C 284.175781 565.027344 290.476562 558.722656 290.476562 550.976562 L 290.476562 322.0625 C 290.476562 314.316406 284.171875 308.015625 276.425781 308.015625 Z M 121.800781 308.015625 " fill-opacity="1" fill-rule="nonzero"/><path fill="#ffffff" d="M 127.421875 463.15625 L 265.503906 463.15625 C 266.066406 463.15625 266.625 463.210938 267.179688 463.320312 C 267.734375 463.429688 268.269531 463.59375 268.792969 463.808594 C 269.3125 464.027344 269.808594 464.289062 270.277344 464.605469 C 270.746094 464.917969 271.179688 465.273438 271.582031 465.671875 C 271.980469 466.070312 272.335938 466.507812 272.648438 466.976562 C 272.960938 467.445312 273.226562 467.941406 273.445312 468.460938 C 273.660156 468.984375 273.824219 469.519531 273.933594 470.074219 C 274.042969 470.628906 274.097656 471.1875 274.097656 471.75 C 274.097656 472.316406 274.042969 472.875 273.933594 473.429688 C 273.824219 473.980469 273.660156 474.519531 273.445312 475.039062 C 273.226562 475.5625 272.960938 476.058594 272.648438 476.527344 C 272.335938 476.996094 271.980469 477.429688 271.582031 477.828125 C 271.179688 478.230469 270.746094 478.585938 270.277344 478.898438 C 269.808594 479.210938 269.3125 479.476562 268.792969 479.691406 C 268.269531 479.910156 267.734375 480.070312 267.179688 480.183594 C 266.625 480.292969 266.066406 480.347656 265.503906 480.347656 L 127.421875 480.347656 C 126.855469 480.347656 126.296875 480.292969 125.746094 480.183594 C 125.191406 480.070312 124.652344 479.910156 124.132812 479.691406 C 123.609375 479.476562 123.113281 479.210938 122.644531 478.898438 C 122.175781 478.585938 121.742188 478.230469 121.34375 477.828125 C 120.945312 477.429688 120.585938 476.996094 120.273438 476.527344 C 119.960938 476.058594 119.695312 475.5625 119.480469 475.039062 C 119.265625 474.519531 119.101562 473.980469 118.992188 473.429688 C 118.878906 472.875 118.824219 472.316406 118.824219 471.75 C 118.824219 471.1875 118.878906 470.628906 118.992188 470.074219 C 119.101562 469.519531 119.265625 468.984375 119.480469 468.460938 C 119.695312 467.941406 119.960938 467.445312 120.273438 466.976562 C 120.585938 466.507812 120.945312 466.070312 121.34375 465.671875 C 121.742188 465.273438 122.175781 464.917969 122.644531 464.605469 C 123.113281 464.289062 123.609375 464.027344 124.132812 463.808594 C 124.652344 463.59375 125.191406 463.429688 125.746094 463.320312 C 126.296875 463.210938 126.855469 463.15625 127.421875 463.15625 Z M 127.421875 463.15625 " fill-opacity="1" fill-rule="nonzero"/><path fill="#0a5c5d" d="M 265.503906 481.261719 L 127.421875 481.261719 C 122.175781 481.261719 117.910156 476.996094 117.910156 471.75 C 117.910156 466.503906 122.175781 462.238281 127.421875 462.238281 L 265.503906 462.238281 C 270.746094 462.238281 275.015625 466.503906 275.015625 471.75 C 275.015625 476.996094 270.746094 481.261719 265.503906 481.261719 Z M 127.421875 464.070312 C 123.1875 464.070312 119.742188 467.515625 119.742188 471.75 C 119.742188 475.984375 123.1875 479.429688 127.421875 479.429688 L 265.503906 479.429688 C 269.738281 479.429688 273.183594 475.984375 273.183594 471.75 C 273.183594 467.515625 269.738281 464.070312 265.503906 464.070312 Z M 127.421875 464.070312 " fill-opacity="1" fill-rule="nonzero"/><path fill="#ffffff" d="M 127.421875 501.980469 L 265.503906 501.980469 C 266.066406 501.980469 266.625 502.035156 267.179688 502.144531 C 267.734375 502.253906 268.269531 502.417969 268.792969 502.632812 C 269.3125 502.851562 269.808594 503.113281 270.277344 503.429688 C 270.746094 503.742188 271.179688 504.097656 271.582031 504.496094 C 271.980469 504.894531 272.335938 505.332031 272.648438 505.800781 C 272.960938 506.269531 273.226562 506.765625 273.445312 507.285156 C 273.660156 507.808594 273.824219 508.34375 273.933594 508.898438 C 274.042969 509.453125 274.097656 510.011719 274.097656 510.574219 C 274.097656 511.140625 274.042969 511.699219 273.933594 512.253906 C 273.824219 512.804688 273.660156 513.34375 273.445312 513.867188 C 273.226562 514.386719 272.960938 514.882812 272.648438 515.351562 C 272.335938 515.820312 271.980469 516.253906 271.582031 516.652344 C 271.179688 517.054688 270.746094 517.410156 270.277344 517.722656 C 269.808594 518.035156 269.3125 518.300781 268.792969 518.515625 C 268.269531 518.734375 267.734375 518.894531 267.179688 519.007812 C 266.625 519.117188 266.066406 519.171875 265.503906 519.171875 L 127.421875 519.171875 C 126.855469 519.171875 126.296875 519.117188 125.746094 519.007812 C 125.191406 518.894531 124.652344 518.734375 124.132812 518.515625 C 123.609375 518.300781 123.113281 518.035156 122.644531 517.722656 C 122.175781 517.410156 121.742188 517.054688 121.34375 516.652344 C 120.945312 516.253906 120.585938 515.820312 120.273438 515.351562 C 119.960938 514.882812 119.695312 514.386719 119.480469 513.867188 C 119.265625 513.34375 119.101562 512.804688 118.992188 512.253906 C 118.878906 511.699219 118.824219 511.140625 118.824219 510.574219 C 118.824219 510.011719 118.878906 509.453125 118.992188 508.898438 C 119.101562 508.34375 119.265625 507.808594 119.480469 507.285156 C 119.695312 506.765625 119.960938 506.269531 120.273438 505.800781 C 120.585938 505.332031 120.945312 504.894531 121.34375 504.496094 C 121.742188 504.097656 122.175781 503.742188 122.644531 503.429688 C 123.113281 503.113281 123.609375 502.851562 124.132812 502.632812 C 124.652344 502.417969 125.191406 502.253906 125.746094 502.144531 C 126.296875 502.035156 126.855469 501.980469 127.421875 501.980469 Z M 127.421875 501.980469 " fill-opacity="1" fill-rule="nonzero"/><path fill="#0a5c5d" d="M 265.503906 520.085938 L 127.421875 520.085938 C 122.175781 520.085938 117.910156 515.820312 117.910156 510.574219 C 117.910156 505.332031 122.175781 501.0625 127.421875 501.0625 L 265.503906 501.0625 C 270.746094 501.0625 275.015625 505.332031 275.015625 510.574219 C 275.015625 515.820312 270.746094 520.085938 265.503906 520.085938 Z M 127.421875 502.894531 C 123.1875 502.894531 119.742188 506.339844 119.742188 510.574219 C 119.742188 514.808594 123.1875 518.253906 127.421875 518.253906 L 265.503906 518.253906 C 269.738281 518.253906 273.183594 514.808594 273.183594 510.574219 C 273.183594 506.339844 269.738281 502.894531 265.503906 502.894531 Z M 127.421875 502.894531 " fill-opacity="1" fill-rule="nonzero"/><path fill="#18b7c9" d="M 238.089844 471.75 C 238.089844 472.566406 238.011719 473.371094 237.851562 474.167969 C 237.691406 474.96875 237.457031 475.742188 237.144531 476.492188 C 236.835938 477.246094 236.453125 477.960938 236 478.636719 C 235.546875 479.3125 235.035156 479.941406 234.460938 480.515625 C 233.882812 481.089844 233.257812 481.605469 232.582031 482.054688 C 231.90625 482.507812 231.191406 482.890625 230.4375 483.203125 C 229.6875 483.511719 228.910156 483.75 228.113281 483.90625 C 227.316406 484.066406 226.507812 484.144531 225.695312 484.144531 C 224.882812 484.144531 224.074219 484.066406 223.277344 483.90625 C 222.480469 483.75 221.703125 483.511719 220.953125 483.203125 C 220.199219 482.890625 219.484375 482.507812 218.808594 482.054688 C 218.132812 481.605469 217.507812 481.089844 216.929688 480.515625 C 216.355469 479.941406 215.84375 479.3125 215.390625 478.636719 C 214.9375 477.960938 214.554688 477.246094 214.246094 476.492188 C 213.933594 475.742188 213.699219 474.96875 213.539062 474.167969 C 213.378906 473.371094 213.300781 472.566406 213.300781 471.75 C 213.300781 470.9375 213.378906 470.132812 213.539062 469.332031 C 213.699219 468.535156 213.933594 467.761719 214.246094 467.007812 C 214.554688 466.257812 214.9375 465.542969 215.390625 464.867188 C 215.84375 464.1875 216.355469 463.5625 216.929688 462.988281 C 217.507812 462.410156 218.132812 461.898438 218.808594 461.445312 C 219.484375 460.992188 220.199219 460.613281 220.953125 460.300781 C 221.703125 459.988281 222.480469 459.753906 223.277344 459.59375 C 224.074219 459.4375 224.882812 459.355469 225.695312 459.355469 C 226.507812 459.355469 227.316406 459.4375 228.113281 459.59375 C 228.910156 459.753906 229.6875 459.988281 230.4375 460.300781 C 231.191406 460.613281 231.90625 460.992188 232.582031 461.445312 C 233.257812 461.898438 233.882812 462.410156 234.460938 462.988281 C 235.035156 463.5625 235.546875 464.1875 236 464.867188 C 236.453125 465.542969 236.835938 466.257812 237.144531 467.007812 C 237.457031 467.761719 237.691406 468.535156 237.851562 469.332031 C 238.011719 470.132812 238.089844 470.9375 238.089844 471.75 Z M 238.089844 471.75 " fill-opacity="1" fill-rule="nonzero"/><path fill="#18b7c9" d="M 225.695312 485.0625 C 218.355469 485.0625 212.386719 479.089844 212.386719 471.75 C 212.386719 464.410156 218.355469 458.441406 225.695312 458.441406 C 233.035156 458.441406 239.003906 464.410156 239.003906 471.75 C 239.003906 479.089844 233.035156 485.0625 225.695312 485.0625 Z M 225.695312 460.273438 C 219.367188 460.273438 214.21875 465.421875 214.21875 471.75 C 214.21875 478.078125 219.367188 483.230469 225.695312 483.230469 C 232.023438 483.230469 237.171875 478.078125 237.171875 471.75 C 237.171875 465.421875 232.023438 460.273438 225.695312 460.273438 Z M 225.695312 460.273438 " fill-opacity="1" fill-rule="nonzero"/><path fill="#18b7c9" d="M 187.578125 510.574219 C 187.578125 511.390625 187.496094 512.195312 187.339844 512.992188 C 187.179688 513.792969 186.945312 514.566406 186.632812 515.316406 C 186.324219 516.070312 185.941406 516.785156 185.488281 517.460938 C 185.035156 518.136719 184.523438 518.765625 183.949219 519.339844 C 183.371094 519.914062 182.746094 520.429688 182.070312 520.878906 C 181.390625 521.332031 180.679688 521.714844 179.925781 522.027344 C 179.175781 522.335938 178.398438 522.574219 177.601562 522.730469 C 176.804688 522.890625 175.996094 522.96875 175.183594 522.96875 C 174.371094 522.96875 173.5625 522.890625 172.765625 522.730469 C 171.96875 522.574219 171.191406 522.335938 170.441406 522.027344 C 169.6875 521.714844 168.972656 521.332031 168.296875 520.878906 C 167.621094 520.429688 166.996094 519.914062 166.417969 519.339844 C 165.84375 518.765625 165.332031 518.136719 164.878906 517.460938 C 164.425781 516.785156 164.042969 516.070312 163.734375 515.316406 C 163.421875 514.566406 163.1875 513.792969 163.027344 512.992188 C 162.867188 512.195312 162.789062 511.390625 162.789062 510.574219 C 162.789062 509.761719 162.867188 508.957031 163.027344 508.15625 C 163.1875 507.359375 163.421875 506.585938 163.734375 505.832031 C 164.042969 505.082031 164.425781 504.367188 164.878906 503.691406 C 165.332031 503.011719 165.84375 502.386719 166.417969 501.8125 C 166.996094 501.234375 167.621094 500.722656 168.296875 500.269531 C 168.972656 499.816406 169.6875 499.4375 170.441406 499.125 C 171.191406 498.8125 171.96875 498.578125 172.765625 498.417969 C 173.5625 498.261719 174.371094 498.179688 175.183594 498.179688 C 175.996094 498.179688 176.804688 498.261719 177.601562 498.417969 C 178.398438 498.578125 179.175781 498.8125 179.925781 499.125 C 180.679688 499.4375 181.390625 499.816406 182.070312 500.269531 C 182.746094 500.722656 183.371094 501.234375 183.949219 501.8125 C 184.523438 502.386719 185.035156 503.011719 185.488281 503.691406 C 185.941406 504.367188 186.324219 505.082031 186.632812 505.832031 C 186.945312 506.585938 187.179688 507.359375 187.339844 508.15625 C 187.496094 508.957031 187.578125 509.761719 187.578125 510.574219 Z M 187.578125 510.574219 " fill-opacity="1" fill-rule="nonzero"/><path fill="#18b7c9" d="M 175.183594 523.886719 C 167.84375 523.886719 161.871094 517.914062 161.871094 510.574219 C 161.871094 503.234375 167.84375 497.265625 175.183594 497.265625 C 182.523438 497.265625 188.492188 503.238281 188.492188 510.574219 C 188.492188 517.914062 182.523438 523.886719 175.183594 523.886719 Z M 175.183594 499.097656 C 168.855469 499.097656 163.707031 504.246094 163.707031 510.574219 C 163.707031 516.902344 168.855469 522.054688 175.183594 522.054688 C 181.511719 522.054688 186.660156 516.90625 186.660156 510.574219 C 186.660156 504.246094 181.511719 499.097656 175.183594 499.097656 Z M 175.183594 499.097656 " fill-opacity="1" fill-rule="nonzero"/><path fill="#0a5c5d" d="M 199.113281 425.871094 C 176.910156 425.871094 158.914062 407.871094 158.914062 385.667969 C 158.914062 369.539062 168.414062 355.632812 182.121094 349.226562 L 175.082031 334.132812 C 155.695312 343.191406 142.261719 362.859375 142.261719 385.667969 C 142.261719 417.066406 167.714844 442.523438 199.113281 442.523438 C 211.6875 442.523438 223.308594 438.4375 232.722656 431.523438 L 222.878906 418.09375 C 216.222656 422.980469 208.007812 425.871094 199.113281 425.871094 Z M 199.113281 425.871094 " fill-opacity="1" fill-rule="nonzero"/><path fill="#0a5c5d" d="M 199.113281 443.441406 C 167.257812 443.441406 141.34375 417.523438 141.34375 385.667969 C 141.34375 363.320312 154.433594 342.765625 174.695312 333.304688 C 174.914062 333.203125 175.167969 333.191406 175.394531 333.273438 C 175.625 333.355469 175.808594 333.527344 175.914062 333.746094 L 182.949219 348.839844 C 183.164062 349.300781 182.964844 349.84375 182.507812 350.058594 C 168.730469 356.496094 159.828125 370.472656 159.828125 385.667969 C 159.828125 407.332031 177.453125 424.957031 199.113281 424.957031 C 207.535156 424.957031 215.566406 422.328125 222.335938 417.355469 C 222.53125 417.210938 222.777344 417.152344 223.019531 417.191406 C 223.257812 417.226562 223.472656 417.355469 223.617188 417.554688 L 233.460938 430.984375 C 233.761719 431.390625 233.671875 431.964844 233.265625 432.265625 C 223.304688 439.574219 211.496094 443.441406 199.113281 443.441406 Z M 174.640625 335.359375 C 155.496094 344.691406 143.175781 364.335938 143.175781 385.667969 C 143.175781 416.511719 168.269531 441.605469 199.113281 441.605469 C 210.800781 441.605469 221.953125 438.054688 231.4375 431.324219 L 222.675781 419.367188 C 215.75 424.226562 207.621094 426.785156 199.113281 426.785156 C 176.441406 426.785156 157.996094 408.339844 157.996094 385.667969 C 157.996094 370.070312 166.960938 355.695312 180.910156 348.796875 L 174.644531 335.359375 Z M 174.640625 335.359375 " fill-opacity="1" fill-rule="nonzero"/><path fill="#ffffff" d="M 199.113281 345.46875 C 206.019531 345.46875 212.519531 347.210938 218.199219 350.277344 L 226.101562 335.621094 C 218.074219 331.28125 208.882812 328.816406 199.113281 328.816406 C 190.523438 328.816406 182.382812 330.722656 175.082031 334.132812 L 182.121094 349.230469 C 187.285156 346.816406 193.039062 345.46875 199.113281 345.46875 Z M 199.113281 345.46875 " fill-opacity="1" fill-rule="nonzero"/><path fill="#0a5c5d" d="M 218.199219 351.195312 C 218.046875 351.195312 217.898438 351.15625 217.761719 351.085938 C 212.070312 348.007812 205.621094 346.382812 199.113281 346.382812 C 193.316406 346.382812 187.730469 347.621094 182.507812 350.058594 C 182.289062 350.160156 182.035156 350.171875 181.808594 350.089844 C 181.578125 350.007812 181.394531 349.835938 181.289062 349.617188 L 174.25 334.519531 C 174.039062 334.0625 174.234375 333.519531 174.695312 333.304688 C 182.371094 329.71875 190.585938 327.898438 199.113281 327.898438 C 208.683594 327.898438 218.167969 330.289062 226.539062 334.8125 C 226.984375 335.054688 227.148438 335.609375 226.910156 336.054688 L 219.003906 350.714844 C 218.890625 350.925781 218.695312 351.085938 218.460938 351.15625 C 218.375 351.183594 218.285156 351.195312 218.199219 351.195312 Z M 199.113281 344.550781 C 205.617188 344.550781 212.066406 346.101562 217.820312 349.046875 L 224.859375 335.996094 C 216.957031 331.894531 208.074219 329.730469 199.113281 329.730469 C 191.164062 329.730469 183.496094 331.363281 176.300781 334.582031 L 182.566406 348.019531 C 187.792969 345.71875 193.351562 344.550781 199.113281 344.550781 Z M 199.113281 344.550781 " fill-opacity="1" fill-rule="nonzero"/><path fill="#18b7c9" d="M 255.96875 385.667969 C 255.96875 364.039062 243.886719 345.230469 226.101562 335.621094 L 218.199219 350.277344 C 230.773438 357.074219 239.316406 370.375 239.316406 385.667969 C 239.316406 398.980469 232.84375 410.777344 222.878906 418.09375 L 232.722656 431.523438 C 246.816406 421.179688 255.96875 404.492188 255.96875 385.667969 Z M 255.96875 385.667969 " fill-opacity="1" fill-rule="nonzero"/><path fill="#18b7c9" d="M 232.722656 432.441406 C 232.675781 432.441406 232.628906 432.4375 232.582031 432.429688 C 232.34375 432.394531 232.128906 432.261719 231.984375 432.066406 L 222.140625 418.636719 C 221.839844 418.226562 221.929688 417.65625 222.335938 417.355469 C 232.394531 409.972656 238.398438 398.125 238.398438 385.667969 C 238.398438 371.214844 230.492188 357.964844 217.761719 351.085938 C 217.316406 350.84375 217.152344 350.289062 217.390625 349.84375 L 225.296875 335.183594 C 225.410156 334.972656 225.605469 334.8125 225.839844 334.742188 C 226.074219 334.671875 226.324219 334.699219 226.539062 334.8125 C 245.253906 344.929688 256.882812 364.414062 256.882812 385.667969 C 256.882812 403.988281 248.054688 421.40625 233.265625 432.265625 C 233.105469 432.378906 232.917969 432.441406 232.722656 432.441406 Z M 224.152344 418.28125 L 232.914062 430.238281 C 246.792969 419.691406 255.050781 403.101562 255.050781 385.667969 C 255.050781 365.394531 244.125 346.78125 226.46875 336.867188 L 219.433594 349.917969 C 232.285156 357.230469 240.230469 370.847656 240.230469 385.667969 C 240.230469 398.402344 234.238281 410.523438 224.152344 418.28125 Z M 224.152344 418.28125 " fill-opacity="1" fill-rule="nonzero"/></svg>